<?xml version="1.0" encoding="UTF-8"?>
<!DOCTYPE svg PUBLIC "-//W3C//DTD SVG 1.1//EN" "http://www.w3.org/Graphics/SVG/1.1/DTD/svg11.dtd">
<svg xmlns="http://www.w3.org/2000/svg" version="1.1" viewBox="0 0 109 109" stroke="none">
	<rect width="100%" height="100%" fill="#FFFFFF"/>
	<path d="M4,4h1v1h-1zM5,4h1v1h-1zM6,4h1v1h-1zM7,4h1v1h-1zM8,4h1v1h-1zM9,4h1v1h-1zM10,4h1v1h-1zM15,4h1v1h-1zM17,4h1v1h-1zM19,4h1v1h-1zM22,4h1v1h-1zM25,4h1v1h-1zM26,4h1v1h-1zM27,4h1v1h-1zM30,4h1v1h-1zM32,4h1v1h-1zM35,4h1v1h-1zM36,4h1v1h-1zM39,4h1v1h-1zM43,4h1v1h-1zM49,4h1v1h-1zM50,4h1v1h-1zM54,4h1v1h-1zM59,4h1v1h-1zM60,4h1v1h-1zM63,4h1v1h-1zM64,4h1v1h-1zM66,4h1v1h-1zM67,4h1v1h-1zM73,4h1v1h-1zM74,4h1v1h-1zM75,4h1v1h-1zM79,4h1v1h-1zM80,4h1v1h-1zM81,4h1v1h-1zM82,4h1v1h-1zM85,4h1v1h-1zM86,4h1v1h-1zM88,4h1v1h-1zM91,4h1v1h-1zM94,4h1v1h-1zM95,4h1v1h-1zM98,4h1v1h-1zM99,4h1v1h-1zM100,4h1v1h-1zM101,4h1v1h-1zM102,4h1v1h-1zM103,4h1v1h-1zM104,4h1v1h-1zM4,5h1v1h-1z M10,5h1v1h-1z M12,5h1v1h-1z M14,5h1v1h-1z M15,5h1v1h-1z M17,5h1v1h-1z M23,5h1v1h-1z M28,5h1v1h-1z M30,5h1v1h-1z M33,5h1v1h-1z M34,5h1v1h-1z M35,5h1v1h-1z M39,5h1v1h-1z M40,5h1v1h-1z M42,5h1v1h-1z M43,5h1v1h-1z M45,5h1v1h-1z M46,5h1v1h-1z M48,5h1v1h-1z M49,5h1v1h-1z M50,5h1v1h-1z M52,5h1v1h-1z M55,5h1v1h-1z M57,5h1v1h-1z M58,5h1v1h-1z M59,5h1v1h-1z M60,5h1v1h-1z M61,5h1v1h-1z M62,5h1v1h-1z M63,5h1v1h-1z M67,5h1v1h-1z M71,5h1v1h-1z M72,5h1v1h-1z M73,5h1v1h-1z M75,5h1v1h-1z M78,5h1v1h-1z M81,5h1v1h-1z M85,5h1v1h-1z M86,5h1v1h-1z M87,5h1v1h-1z M88,5h1v1h-1z M89,5h1v1h-1z M91,5h1v1h-1z M93,5h1v1h-1z M98,5h1v1h-1z M104,5h1v1h-1zM4,6h1v1h-1z M6,6h1v1h-1z M7,6h1v1h-1z M8,6h1v1h-1z M10,6h1v1h-1z M12,6h1v1h-1z M17,6h1v1h-1z M18,6h1v1h-1z M20,6h1v1h-1z M21,6h1v1h-1z M23,6h1v1h-1z M25,6h1v1h-1z M29,6h1v1h-1z M31,6h1v1h-1z M33,6h1v1h-1z M36,6h1v1h-1z M37,6h1v1h-1z M38,6h1v1h-1z M43,6h1v1h-1z M44,6h1v1h-1z M45,6h1v1h-1z M46,6h1v1h-1z M47,6h1v1h-1z M50,6h1v1h-1z M52,6h1v1h-1z M53,6h1v1h-1z M56,6h1v1h-1z M58,6h1v1h-1z M59,6h1v1h-1z M60,6h1v1h-1z M61,6h1v1h-1z M62,6h1v1h-1z M63,6h1v1h-1z M64,6h1v1h-1z M65,6h1v1h-1z M68,6h1v1h-1z M69,6h1v1h-1z M71,6h1v1h-1z M77,6h1v1h-1z M78,6h1v1h-1z M80,6h1v1h-1z M81,6h1v1h-1z M84,6h1v1h-1z M85,6h1v1h-1z M86,6h1v1h-1z M88,6h1v1h-1z M89,6h1v1h-1z M90,6h1v1h-1z M92,6h1v1h-1z M95,6h1v1h-1z M98,6h1v1h-1z M100,6h1v1h-1z M101,6h1v1h-1z M102,6h1v1h-1z M104,6h1v1h-1zM4,7h1v1h-1z M6,7h1v1h-1z M7,7h1v1h-1z M8,7h1v1h-1z M10,7h1v1h-1z M14,7h1v1h-1z M19,7h1v1h-1z M20,7h1v1h-1z M21,7h1v1h-1z M23,7h1v1h-1z M24,7h1v1h-1z M26,7h1v1h-1z M27,7h1v1h-1z M30,7h1v1h-1z M32,7h1v1h-1z M33,7h1v1h-1z M35,7h1v1h-1z M36,7h1v1h-1z M37,7h1v1h-1z M38,7h1v1h-1z M42,7h1v1h-1z M43,7h1v1h-1z M44,7h1v1h-1z M45,7h1v1h-1z M47,7h1v1h-1z M48,7h1v1h-1z M49,7h1v1h-1z M50,7h1v1h-1z M54,7h1v1h-1z M56,7h1v1h-1z M57,7h1v1h-1z M59,7h1v1h-1z M62,7h1v1h-1z M65,7h1v1h-1z M66,7h1v1h-1z M69,7h1v1h-1z M77,7h1v1h-1z M83,7h1v1h-1z M87,7h1v1h-1z M88,7h1v1h-1z M91,7h1v1h-1z M92,7h1v1h-1z M94,7h1v1h-1z M95,7h1v1h-1z M98,7h1v1h-1z M100,7h1v1h-1z M101,7h1v1h-1z M102,7h1v1h-1z M104,7h1v1h-1zM4,8h1v1h-1z M6,8h1v1h-1z M7,8h1v1h-1z M8,8h1v1h-1z M10,8h1v1h-1z M15,8h1v1h-1z M17,8h1v1h-1z M19,8h1v1h-1z M20,8h1v1h-1z M23,8h1v1h-1z M27,8h1v1h-1z M28,8h1v1h-1z M30,8h1v1h-1z M31,8h1v1h-1z M32,8h1v1h-1z M33,8h1v1h-1z M34,8h1v1h-1z M35,8h1v1h-1z M36,8h1v1h-1z M38,8h1v1h-1z M39,8h1v1h-1z M41,8h1v1h-1z M42,8h1v1h-1z M46,8h1v1h-1z M47,8h1v1h-1z M48,8h1v1h-1z M49,8h1v1h-1z M51,8h1v1h-1z M52,8h1v1h-1z M53,8h1v1h-1z M54,8h1v1h-1z M55,8h1v1h-1z M56,8h1v1h-1z M58,8h1v1h-1z M59,8h1v1h-1z M60,8h1v1h-1z M61,8h1v1h-1z M62,8h1v1h-1z M63,8h1v1h-1z M66,8h1v1h-1z M71,8h1v1h-1z M72,8h1v1h-1z M73,8h1v1h-1z M74,8h1v1h-1z M75,8h1v1h-1z M76,8h1v1h-1z M77,8h1v1h-1z M78,8h1v1h-1z M83,8h1v1h-1z M85,8h1v1h-1z M86,8h1v1h-1z M89,8h1v1h-1z M91,8h1v1h-1z M94,8h1v1h-1z M96,8h1v1h-1z M98,8h1v1h-1z M100,8h1v1h-1z M101,8h1v1h-1z M102,8h1v1h-1z M104,8h1v1h-1zM4,9h1v1h-1z M10,9h1v1h-1z M16,9h1v1h-1z M17,9h1v1h-1z M18,9h1v1h-1z M19,9h1v1h-1z M21,9h1v1h-1z M22,9h1v1h-1z M24,9h1v1h-1z M26,9h1v1h-1z M27,9h1v1h-1z M28,9h1v1h-1z M29,9h1v1h-1z M30,9h1v1h-1z M34,9h1v1h-1z M38,9h1v1h-1z M40,9h1v1h-1z M42,9h1v1h-1z M44,9h1v1h-1z M45,9h1v1h-1z M46,9h1v1h-1z M48,9h1v1h-1z M51,9h1v1h-1z M52,9h1v1h-1z M56,9h1v1h-1z M58,9h1v1h-1z M59,9h1v1h-1z M60,9h1v1h-1z M65,9h1v1h-1z M66,9h1v1h-1z M67,9h1v1h-1z M69,9h1v1h-1z M70,9h1v1h-1z M71,9h1v1h-1z M73,9h1v1h-1z M74,9h1v1h-1z M78,9h1v1h-1z M80,9h1v1h-1z M82,9h1v1h-1z M83,9h1v1h-1z M85,9h1v1h-1z M88,9h1v1h-1z M89,9h1v1h-1z M90,9h1v1h-1z M92,9h1v1h-1z M95,9h1v1h-1z M98,9h1v1h-1z M104,9h1v1h-1zM4,10h1v1h-1z M5,10h1v1h-1z M6,10h1v1h-1z M7,10h1v1h-1z M8,10h1v1h-1z M9,10h1v1h-1z M10,10h1v1h-1z M12,10h1v1h-1z M14,10h1v1h-1z M16,10h1v1h-1z M18,10h1v1h-1z M20,10h1v1h-1z M22,10h1v1h-1z M24,10h1v1h-1z M26,10h1v1h-1z M28,10h1v1h-1z M30,10h1v1h-1z M32,10h1v1h-1z M34,10h1v1h-1z M36,10h1v1h-1z M38,10h1v1h-1z M40,10h1v1h-1z M42,10h1v1h-1z M44,10h1v1h-1z M46,10h1v1h-1z M48,10h1v1h-1z M50,10h1v1h-1z M52,10h1v1h-1z M54,10h1v1h-1z M56,10h1v1h-1z M58,10h1v1h-1z M60,10h1v1h-1z M62,10h1v1h-1z M64,10h1v1h-1z M66,10h1v1h-1z M68,10h1v1h-1z M70,10h1v1h-1z M72,10h1v1h-1z M74,10h1v1h-1z M76,10h1v1h-1z M78,10h1v1h-1z M80,10h1v1h-1z M82,10h1v1h-1z M84,10h1v1h-1z M86,10h1v1h-1z M88,10h1v1h-1z M90,10h1v1h-1z M92,10h1v1h-1z M94,10h1v1h-1z M96,10h1v1h-1z M98,10h1v1h-1z M99,10h1v1h-1z M100,10h1v1h-1z M101,10h1v1h-1z M102,10h1v1h-1z M103,10h1v1h-1z M104,10h1v1h-1z M13,11h1v1h-1z M15,11h1v1h-1z M16,11h1v1h-1z M20,11h1v1h-1z M21,11h1v1h-1z M22,11h1v1h-1z M29,11h1v1h-1z M30,11h1v1h-1z M34,11h1v1h-1z M35,11h1v1h-1z M39,11h1v1h-1z M43,11h1v1h-1z M45,11h1v1h-1z M48,11h1v1h-1z M52,11h1v1h-1z M56,11h1v1h-1z M60,11h1v1h-1z M62,11h1v1h-1z M63,11h1v1h-1z M64,11h1v1h-1z M71,11h1v1h-1z M74,11h1v1h-1z M78,11h1v1h-1z M80,11h1v1h-1z M84,11h1v1h-1z M85,11h1v1h-1z M87,11h1v1h-1z M90,11h1v1h-1z M94,11h1v1h-1z M5,12h1v1h-1z M6,12h1v1h-1z M7,12h1v1h-1z M9,12h1v1h-1z M10,12h1v1h-1z M15,12h1v1h-1z M20,12h1v1h-1z M21,12h1v1h-1z M25,12h1v1h-1z M27,12h1v1h-1z M28,12h1v1h-1z M29,12h1v1h-1z M30,12h1v1h-1z M31,12h1v1h-1z M32,12h1v1h-1z M33,12h1v1h-1z M34,12h1v1h-1z M36,12h1v1h-1z M39,12h1v1h-1z M41,12h1v1h-1z M42,12h1v1h-1z M43,12h1v1h-1z M44,12h1v1h-1z M46,12h1v1h-1z M52,12h1v1h-1z M53,12h1v1h-1z M54,12h1v1h-1z M55,12h1v1h-1z M56,12h1v1h-1z M57,12h1v1h-1z M59,12h1v1h-1z M62,12h1v1h-1z M63,12h1v1h-1z M66,12h1v1h-1z M74,12h1v1h-1z M75,12h1v1h-1z M76,12h1v1h-1z M77,12h1v1h-1z M78,12h1v1h-1z M79,12h1v1h-1z M82,12h1v1h-1z M83,12h1v1h-1z M84,12h1v1h-1z M85,12h1v1h-1z M86,12h1v1h-1z M87,12h1v1h-1z M88,12h1v1h-1z M89,12h1v1h-1z M90,12h1v1h-1z M92,12h1v1h-1z M94,12h1v1h-1z M96,12h1v1h-1z M102,12h1v1h-1z M103,12h1v1h-1z M7,13h1v1h-1z M8,13h1v1h-1z M9,13h1v1h-1z M12,13h1v1h-1z M15,13h1v1h-1z M16,13h1v1h-1z M17,13h1v1h-1z M18,13h1v1h-1z M19,13h1v1h-1z M21,13h1v1h-1z M22,13h1v1h-1z M23,13h1v1h-1z M25,13h1v1h-1z M29,13h1v1h-1z M30,13h1v1h-1z M31,13h1v1h-1z M32,13h1v1h-1z M33,13h1v1h-1z M34,13h1v1h-1z M35,13h1v1h-1z M36,13h1v1h-1z M40,13h1v1h-1z M41,13h1v1h-1z M42,13h1v1h-1z M43,13h1v1h-1z M44,13h1v1h-1z M46,13h1v1h-1z M48,13h1v1h-1z M50,13h1v1h-1z M51,13h1v1h-1z M55,13h1v1h-1z M56,13h1v1h-1z M59,13h1v1h-1z M61,13h1v1h-1z M63,13h1v1h-1z M64,13h1v1h-1z M66,13h1v1h-1z M67,13h1v1h-1z M69,13h1v1h-1z M73,13h1v1h-1z M74,13h1v1h-1z M75,13h1v1h-1z M77,13h1v1h-1z M78,13h1v1h-1z M79,13h1v1h-1z M80,13h1v1h-1z M84,13h1v1h-1z M85,13h1v1h-1z M87,13h1v1h-1z M88,13h1v1h-1z M89,13h1v1h-1z M93,13h1v1h-1z M96,13h1v1h-1z M97,13h1v1h-1z M98,13h1v1h-1z M99,13h1v1h-1z M100,13h1v1h-1z M102,13h1v1h-1z M103,13h1v1h-1z M104,13h1v1h-1z M6,14h1v1h-1z M8,14h1v1h-1z M10,14h1v1h-1z M13,14h1v1h-1z M16,14h1v1h-1z M17,14h1v1h-1z M18,14h1v1h-1z M21,14h1v1h-1z M22,14h1v1h-1z M23,14h1v1h-1z M25,14h1v1h-1z M26,14h1v1h-1z M30,14h1v1h-1z M31,14h1v1h-1z M35,14h1v1h-1z M38,14h1v1h-1z M39,14h1v1h-1z M43,14h1v1h-1z M45,14h1v1h-1z M47,14h1v1h-1z M48,14h1v1h-1z M50,14h1v1h-1z M53,14h1v1h-1z M54,14h1v1h-1z M55,14h1v1h-1z M58,14h1v1h-1z M59,14h1v1h-1z M60,14h1v1h-1z M61,14h1v1h-1z M64,14h1v1h-1z M65,14h1v1h-1z M66,14h1v1h-1z M67,14h1v1h-1z M68,14h1v1h-1z M69,14h1v1h-1z M70,14h1v1h-1z M72,14h1v1h-1z M76,14h1v1h-1z M77,14h1v1h-1z M78,14h1v1h-1z M79,14h1v1h-1z M81,14h1v1h-1z M83,14h1v1h-1z M84,14h1v1h-1z M86,14h1v1h-1z M88,14h1v1h-1z M90,14h1v1h-1z M94,14h1v1h-1z M95,14h1v1h-1z M97,14h1v1h-1z M99,14h1v1h-1z M101,14h1v1h-1z M102,14h1v1h-1z M104,14h1v1h-1z M6,15h1v1h-1z M7,15h1v1h-1z M12,15h1v1h-1z M13,15h1v1h-1z M14,15h1v1h-1z M16,15h1v1h-1z M17,15h1v1h-1z M20,15h1v1h-1z M22,15h1v1h-1z M24,15h1v1h-1z M28,15h1v1h-1z M30,15h1v1h-1z M31,15h1v1h-1z M33,15h1v1h-1z M37,15h1v1h-1z M38,15h1v1h-1z M40,15h1v1h-1z M41,15h1v1h-1z M45,15h1v1h-1z M47,15h1v1h-1z M48,15h1v1h-1z M50,15h1v1h-1z M52,15h1v1h-1z M53,15h1v1h-1z M54,15h1v1h-1z M55,15h1v1h-1z M57,15h1v1h-1z M58,15h1v1h-1z M60,15h1v1h-1z M61,15h1v1h-1z M63,15h1v1h-1z M64,15h1v1h-1z M65,15h1v1h-1z M66,15h1v1h-1z M69,15h1v1h-1z M71,15h1v1h-1z M73,15h1v1h-1z M75,15h1v1h-1z M77,15h1v1h-1z M78,15h1v1h-1z M82,15h1v1h-1z M83,15h1v1h-1z M84,15h1v1h-1z M85,15h1v1h-1z M86,15h1v1h-1z M88,15h1v1h-1z M89,15h1v1h-1z M90,15h1v1h-1z M92,15h1v1h-1z M93,15h1v1h-1z M95,15h1v1h-1z M101,15h1v1h-1z M102,15h1v1h-1z M103,15h1v1h-1z M5,16h1v1h-1z M6,16h1v1h-1z M7,16h1v1h-1z M8,16h1v1h-1z M9,16h1v1h-1z M10,16h1v1h-1z M11,16h1v1h-1z M12,16h1v1h-1z M13,16h1v1h-1z M17,16h1v1h-1z M18,16h1v1h-1z M19,16h1v1h-1z M20,16h1v1h-1z M22,16h1v1h-1z M24,16h1v1h-1z M25,16h1v1h-1z M26,16h1v1h-1z M27,16h1v1h-1z M28,16h1v1h-1z M29,16h1v1h-1z M30,16h1v1h-1z M31,16h1v1h-1z M33,16h1v1h-1z M35,16h1v1h-1z M37,16h1v1h-1z M39,16h1v1h-1z M40,16h1v1h-1z M41,16h1v1h-1z M42,16h1v1h-1z M43,16h1v1h-1z M45,16h1v1h-1z M48,16h1v1h-1z M54,16h1v1h-1z M56,16h1v1h-1z M57,16h1v1h-1z M58,16h1v1h-1z M60,16h1v1h-1z M62,16h1v1h-1z M63,16h1v1h-1z M64,16h1v1h-1z M68,16h1v1h-1z M70,16h1v1h-1z M73,16h1v1h-1z M78,16h1v1h-1z M81,16h1v1h-1z M90,16h1v1h-1z M91,16h1v1h-1z M92,16h1v1h-1z M96,16h1v1h-1z M97,16h1v1h-1z M100,16h1v1h-1z M102,16h1v1h-1z M103,16h1v1h-1zM4,17h1v1h-1z M5,17h1v1h-1z M8,17h1v1h-1z M9,17h1v1h-1z M11,17h1v1h-1z M13,17h1v1h-1z M18,17h1v1h-1z M20,17h1v1h-1z M21,17h1v1h-1z M22,17h1v1h-1z M26,17h1v1h-1z M27,17h1v1h-1z M30,17h1v1h-1z M31,17h1v1h-1z M32,17h1v1h-1z M33,17h1v1h-1z M34,17h1v1h-1z M36,17h1v1h-1z M38,17h1v1h-1z M42,17h1v1h-1z M46,17h1v1h-1z M47,17h1v1h-1z M48,17h1v1h-1z M51,17h1v1h-1z M52,17h1v1h-1z M54,17h1v1h-1z M55,17h1v1h-1z M56,17h1v1h-1z M58,17h1v1h-1z M61,17h1v1h-1z M63,17h1v1h-1z M65,17h1v1h-1z M66,17h1v1h-1z M67,17h1v1h-1z M71,17h1v1h-1z M76,17h1v1h-1z M78,17h1v1h-1z M79,17h1v1h-1z M81,17h1v1h-1z M85,17h1v1h-1z M87,17h1v1h-1z M89,17h1v1h-1z M92,17h1v1h-1z M93,17h1v1h-1z M94,17h1v1h-1z M95,17h1v1h-1z M96,17h1v1h-1z M97,17h1v1h-1z M98,17h1v1h-1z M100,17h1v1h-1z M101,17h1v1h-1z M102,17h1v1h-1z M103,17h1v1h-1z M104,17h1v1h-1zM4,18h1v1h-1z M5,18h1v1h-1z M6,18h1v1h-1z M7,18h1v1h-1z M8,18h1v1h-1z M9,18h1v1h-1z M10,18h1v1h-1z M12,18h1v1h-1z M13,18h1v1h-1z M14,18h1v1h-1z M15,18h1v1h-1z M16,18h1v1h-1z M17,18h1v1h-1z M19,18h1v1h-1z M20,18h1v1h-1z M21,18h1v1h-1z M22,18h1v1h-1z M23,18h1v1h-1z M24,18h1v1h-1z M28,18h1v1h-1z M29,18h1v1h-1z M30,18h1v1h-1z M31,18h1v1h-1z M32,18h1v1h-1z M33,18h1v1h-1z M37,18h1v1h-1z M40,18h1v1h-1z M42,18h1v1h-1z M43,18h1v1h-1z M44,18h1v1h-1z M45,18h1v1h-1z M46,18h1v1h-1z M48,18h1v1h-1z M52,18h1v1h-1z M57,18h1v1h-1z M58,18h1v1h-1z M59,18h1v1h-1z M60,18h1v1h-1z M65,18h1v1h-1z M68,18h1v1h-1z M75,18h1v1h-1z M78,18h1v1h-1z M79,18h1v1h-1z M80,18h1v1h-1z M83,18h1v1h-1z M87,18h1v1h-1z M90,18h1v1h-1z M91,18h1v1h-1z M92,18h1v1h-1z M97,18h1v1h-1z M101,18h1v1h-1z M102,18h1v1h-1z M103,18h1v1h-1zM4,19h1v1h-1z M5,19h1v1h-1z M6,19h1v1h-1z M7,19h1v1h-1z M9,19h1v1h-1z M11,19h1v1h-1z M14,19h1v1h-1z M15,19h1v1h-1z M17,19h1v1h-1z M19,19h1v1h-1z M20,19h1v1h-1z M21,19h1v1h-1z M24,19h1v1h-1z M29,19h1v1h-1z M32,19h1v1h-1z M33,19h1v1h-1z M37,19h1v1h-1z M39,19h1v1h-1z M41,19h1v1h-1z M42,19h1v1h-1z M43,19h1v1h-1z M44,19h1v1h-1z M45,19h1v1h-1z M48,19h1v1h-1z M49,19h1v1h-1z M50,19h1v1h-1z M51,19h1v1h-1z M52,19h1v1h-1z M53,19h1v1h-1z M55,19h1v1h-1z M59,19h1v1h-1z M60,19h1v1h-1z M62,19h1v1h-1z M65,19h1v1h-1z M68,19h1v1h-1z M69,19h1v1h-1z M70,19h1v1h-1z M73,19h1v1h-1z M79,19h1v1h-1z M81,19h1v1h-1z M82,19h1v1h-1z M84,19h1v1h-1z M85,19h1v1h-1z M87,19h1v1h-1z M91,19h1v1h-1z M94,19h1v1h-1z M97,19h1v1h-1z M98,19h1v1h-1z M99,19h1v1h-1z M100,19h1v1h-1z M101,19h1v1h-1z M102,19h1v1h-1z M103,19h1v1h-1z M104,19h1v1h-1zM4,20h1v1h-1z M5,20h1v1h-1z M7,20h1v1h-1z M8,20h1v1h-1z M10,20h1v1h-1z M13,20h1v1h-1z M14,20h1v1h-1z M17,20h1v1h-1z M18,20h1v1h-1z M20,20h1v1h-1z M23,20h1v1h-1z M25,20h1v1h-1z M26,20h1v1h-1z M27,20h1v1h-1z M29,20h1v1h-1z M30,20h1v1h-1z M32,20h1v1h-1z M34,20h1v1h-1z M36,20h1v1h-1z M37,20h1v1h-1z M39,20h1v1h-1z M40,20h1v1h-1z M41,20h1v1h-1z M43,20h1v1h-1z M44,20h1v1h-1z M45,20h1v1h-1z M46,20h1v1h-1z M48,20h1v1h-1z M51,20h1v1h-1z M54,20h1v1h-1z M57,20h1v1h-1z M59,20h1v1h-1z M60,20h1v1h-1z M63,20h1v1h-1z M66,20h1v1h-1z M71,20h1v1h-1z M76,20h1v1h-1z M79,20h1v1h-1z M82,20h1v1h-1z M84,20h1v1h-1z M87,20h1v1h-1z M89,20h1v1h-1z M94,20h1v1h-1z M95,20h1v1h-1z M96,20h1v1h-1z M97,20h1v1h-1z M100,20h1v1h-1z M7,21h1v1h-1z M9,21h1v1h-1z M11,21h1v1h-1z M12,21h1v1h-1z M13,21h1v1h-1z M15,21h1v1h-1z M18,21h1v1h-1z M22,21h1v1h-1z M24,21h1v1h-1z M26,21h1v1h-1z M28,21h1v1h-1z M30,21h1v1h-1z M31,21h1v1h-1z M32,21h1v1h-1z M33,21h1v1h-1z M40,21h1v1h-1z M41,21h1v1h-1z M43,21h1v1h-1z M47,21h1v1h-1z M50,21h1v1h-1z M52,21h1v1h-1z M53,21h1v1h-1z M55,21h1v1h-1z M57,21h1v1h-1z M58,21h1v1h-1z M61,21h1v1h-1z M63,21h1v1h-1z M66,21h1v1h-1z M67,21h1v1h-1z M68,21h1v1h-1z M72,21h1v1h-1z M73,21h1v1h-1z M75,21h1v1h-1z M77,21h1v1h-1z M80,21h1v1h-1z M81,21h1v1h-1z M83,21h1v1h-1z M85,21h1v1h-1z M86,21h1v1h-1z M89,21h1v1h-1z M90,21h1v1h-1z M93,21h1v1h-1z M94,21h1v1h-1z M97,21h1v1h-1z M100,21h1v1h-1z M102,21h1v1h-1z M103,21h1v1h-1zM4,22h1v1h-1z M8,22h1v1h-1z M10,22h1v1h-1z M11,22h1v1h-1z M12,22h1v1h-1z M16,22h1v1h-1z M17,22h1v1h-1z M24,22h1v1h-1z M29,22h1v1h-1z M32,22h1v1h-1z M34,22h1v1h-1z M37,22h1v1h-1z M38,22h1v1h-1z M42,22h1v1h-1z M43,22h1v1h-1z M45,22h1v1h-1z M47,22h1v1h-1z M48,22h1v1h-1z M49,22h1v1h-1z M51,22h1v1h-1z M52,22h1v1h-1z M53,22h1v1h-1z M56,22h1v1h-1z M58,22h1v1h-1z M59,22h1v1h-1z M60,22h1v1h-1z M63,22h1v1h-1z M64,22h1v1h-1z M65,22h1v1h-1z M67,22h1v1h-1z M69,22h1v1h-1z M70,22h1v1h-1z M71,22h1v1h-1z M72,22h1v1h-1z M73,22h1v1h-1z M76,22h1v1h-1z M79,22h1v1h-1z M80,22h1v1h-1z M81,22h1v1h-1z M82,22h1v1h-1z M83,22h1v1h-1z M84,22h1v1h-1z M85,22h1v1h-1z M87,22h1v1h-1z M88,22h1v1h-1z M89,22h1v1h-1z M90,22h1v1h-1z M92,22h1v1h-1z M95,22h1v1h-1z M97,22h1v1h-1z M99,22h1v1h-1z M100,22h1v1h-1z M101,22h1v1h-1z M102,22h1v1h-1z M103,22h1v1h-1z M104,22h1v1h-1zM4,23h1v1h-1z M6,23h1v1h-1z M7,23h1v1h-1z M9,23h1v1h-1z M11,23h1v1h-1z M12,23h1v1h-1z M13,23h1v1h-1z M16,23h1v1h-1z M17,23h1v1h-1z M22,23h1v1h-1z M23,23h1v1h-1z M24,23h1v1h-1z M27,23h1v1h-1z M28,23h1v1h-1z M29,23h1v1h-1z M30,23h1v1h-1z M32,23h1v1h-1z M33,23h1v1h-1z M38,23h1v1h-1z M40,23h1v1h-1z M44,23h1v1h-1z M45,23h1v1h-1z M46,23h1v1h-1z M47,23h1v1h-1z M48,23h1v1h-1z M50,23h1v1h-1z M51,23h1v1h-1z M53,23h1v1h-1z M58,23h1v1h-1z M60,23h1v1h-1z M61,23h1v1h-1z M62,23h1v1h-1z M63,23h1v1h-1z M66,23h1v1h-1z M71,23h1v1h-1z M72,23h1v1h-1z M73,23h1v1h-1z M76,23h1v1h-1z M77,23h1v1h-1z M79,23h1v1h-1z M80,23h1v1h-1z M83,23h1v1h-1z M85,23h1v1h-1z M88,23h1v1h-1z M89,23h1v1h-1z M90,23h1v1h-1z M91,23h1v1h-1z M93,23h1v1h-1z M95,23h1v1h-1z M96,23h1v1h-1z M97,23h1v1h-1z M98,23h1v1h-1z M103,23h1v1h-1z M104,23h1v1h-1z M5,24h1v1h-1z M8,24h1v1h-1z M10,24h1v1h-1z M13,24h1v1h-1z M16,24h1v1h-1z M19,24h1v1h-1z M21,24h1v1h-1z M23,24h1v1h-1z M26,24h1v1h-1z M28,24h1v1h-1z M29,24h1v1h-1z M32,24h1v1h-1z M35,24h1v1h-1z M36,24h1v1h-1z M37,24h1v1h-1z M39,24h1v1h-1z M40,24h1v1h-1z M42,24h1v1h-1z M44,24h1v1h-1z M45,24h1v1h-1z M46,24h1v1h-1z M47,24h1v1h-1z M49,24h1v1h-1z M57,24h1v1h-1z M58,24h1v1h-1z M59,24h1v1h-1z M60,24h1v1h-1z M61,24h1v1h-1z M63,24h1v1h-1z M65,24h1v1h-1z M66,24h1v1h-1z M67,24h1v1h-1z M68,24h1v1h-1z M69,24h1v1h-1z M70,24h1v1h-1z M74,24h1v1h-1z M76,24h1v1h-1z M79,24h1v1h-1z M80,24h1v1h-1z M82,24h1v1h-1z M83,24h1v1h-1z M85,24h1v1h-1z M86,24h1v1h-1z M88,24h1v1h-1z M89,24h1v1h-1z M95,24h1v1h-1z M96,24h1v1h-1z M100,24h1v1h-1z M101,24h1v1h-1z M102,24h1v1h-1z M103,24h1v1h-1zM4,25h1v1h-1z M11,25h1v1h-1z M13,25h1v1h-1z M16,25h1v1h-1z M17,25h1v1h-1z M18,25h1v1h-1z M23,25h1v1h-1z M26,25h1v1h-1z M27,25h1v1h-1z M28,25h1v1h-1z M30,25h1v1h-1z M32,25h1v1h-1z M33,25h1v1h-1z M37,25h1v1h-1z M38,25h1v1h-1z M42,25h1v1h-1z M43,25h1v1h-1z M44,25h1v1h-1z M45,25h1v1h-1z M46,25h1v1h-1z M49,25h1v1h-1z M50,25h1v1h-1z M52,25h1v1h-1z M53,25h1v1h-1z M55,25h1v1h-1z M56,25h1v1h-1z M58,25h1v1h-1z M59,25h1v1h-1z M62,25h1v1h-1z M64,25h1v1h-1z M65,25h1v1h-1z M66,25h1v1h-1z M67,25h1v1h-1z M68,25h1v1h-1z M69,25h1v1h-1z M70,25h1v1h-1z M76,25h1v1h-1z M81,25h1v1h-1z M82,25h1v1h-1z M84,25h1v1h-1z M86,25h1v1h-1z M87,25h1v1h-1z M88,25h1v1h-1z M90,25h1v1h-1z M91,25h1v1h-1z M93,25h1v1h-1z M99,25h1v1h-1z M104,25h1v1h-1zM4,26h1v1h-1z M5,26h1v1h-1z M6,26h1v1h-1z M8,26h1v1h-1z M10,26h1v1h-1z M12,26h1v1h-1z M15,26h1v1h-1z M16,26h1v1h-1z M17,26h1v1h-1z M18,26h1v1h-1z M22,26h1v1h-1z M27,26h1v1h-1z M29,26h1v1h-1z M30,26h1v1h-1z M34,26h1v1h-1z M37,26h1v1h-1z M38,26h1v1h-1z M39,26h1v1h-1z M40,26h1v1h-1z M41,26h1v1h-1z M42,26h1v1h-1z M46,26h1v1h-1z M47,26h1v1h-1z M49,26h1v1h-1z M50,26h1v1h-1z M53,26h1v1h-1z M57,26h1v1h-1z M58,26h1v1h-1z M61,26h1v1h-1z M71,26h1v1h-1z M72,26h1v1h-1z M74,26h1v1h-1z M78,26h1v1h-1z M80,26h1v1h-1z M81,26h1v1h-1z M82,26h1v1h-1z M84,26h1v1h-1z M85,26h1v1h-1z M87,26h1v1h-1z M88,26h1v1h-1z M90,26h1v1h-1z M91,26h1v1h-1z M94,26h1v1h-1z M95,26h1v1h-1z M98,26h1v1h-1z M100,26h1v1h-1z M101,26h1v1h-1z M102,26h1v1h-1z M104,26h1v1h-1z M5,27h1v1h-1z M6,27h1v1h-1z M7,27h1v1h-1z M13,27h1v1h-1z M15,27h1v1h-1z M16,27h1v1h-1z M17,27h1v1h-1z M20,27h1v1h-1z M21,27h1v1h-1z M22,27h1v1h-1z M23,27h1v1h-1z M24,27h1v1h-1z M26,27h1v1h-1z M29,27h1v1h-1z M31,27h1v1h-1z M33,27h1v1h-1z M35,27h1v1h-1z M36,27h1v1h-1z M39,27h1v1h-1z M40,27h1v1h-1z M41,27h1v1h-1z M43,27h1v1h-1z M45,27h1v1h-1z M46,27h1v1h-1z M47,27h1v1h-1z M48,27h1v1h-1z M50,27h1v1h-1z M52,27h1v1h-1z M53,27h1v1h-1z M57,27h1v1h-1z M61,27h1v1h-1z M62,27h1v1h-1z M66,27h1v1h-1z M68,27h1v1h-1z M71,27h1v1h-1z M73,27h1v1h-1z M78,27h1v1h-1z M79,27h1v1h-1z M81,27h1v1h-1z M82,27h1v1h-1z M83,27h1v1h-1z M86,27h1v1h-1z M89,27h1v1h-1z M93,27h1v1h-1z M94,27h1v1h-1z M95,27h1v1h-1z M97,27h1v1h-1z M98,27h1v1h-1z M101,27h1v1h-1z M102,27h1v1h-1z M103,27h1v1h-1z M5,28h1v1h-1z M6,28h1v1h-1z M8,28h1v1h-1z M10,28h1v1h-1z M11,28h1v1h-1z M15,28h1v1h-1z M18,28h1v1h-1z M22,28h1v1h-1z M23,28h1v1h-1z M28,28h1v1h-1z M31,28h1v1h-1z M32,28h1v1h-1z M33,28h1v1h-1z M35,28h1v1h-1z M37,28h1v1h-1z M39,28h1v1h-1z M40,28h1v1h-1z M42,28h1v1h-1z M45,28h1v1h-1z M46,28h1v1h-1z M47,28h1v1h-1z M52,28h1v1h-1z M54,28h1v1h-1z M55,28h1v1h-1z M56,28h1v1h-1z M57,28h1v1h-1z M59,28h1v1h-1z M61,28h1v1h-1z M63,28h1v1h-1z M64,28h1v1h-1z M67,28h1v1h-1z M68,28h1v1h-1z M71,28h1v1h-1z M72,28h1v1h-1z M74,28h1v1h-1z M76,28h1v1h-1z M81,28h1v1h-1z M83,28h1v1h-1z M84,28h1v1h-1z M89,28h1v1h-1z M90,28h1v1h-1z M92,28h1v1h-1z M93,28h1v1h-1z M95,28h1v1h-1z M96,28h1v1h-1z M101,28h1v1h-1z M104,28h1v1h-1z M5,29h1v1h-1z M6,29h1v1h-1z M11,29h1v1h-1z M13,29h1v1h-1z M15,29h1v1h-1z M16,29h1v1h-1z M17,29h1v1h-1z M18,29h1v1h-1z M23,29h1v1h-1z M24,29h1v1h-1z M25,29h1v1h-1z M26,29h1v1h-1z M28,29h1v1h-1z M30,29h1v1h-1z M32,29h1v1h-1z M34,29h1v1h-1z M35,29h1v1h-1z M37,29h1v1h-1z M42,29h1v1h-1z M45,29h1v1h-1z M47,29h1v1h-1z M50,29h1v1h-1z M51,29h1v1h-1z M52,29h1v1h-1z M53,29h1v1h-1z M54,29h1v1h-1z M55,29h1v1h-1z M56,29h1v1h-1z M57,29h1v1h-1z M59,29h1v1h-1z M60,29h1v1h-1z M61,29h1v1h-1z M62,29h1v1h-1z M63,29h1v1h-1z M65,29h1v1h-1z M66,29h1v1h-1z M67,29h1v1h-1z M69,29h1v1h-1z M71,29h1v1h-1z M73,29h1v1h-1z M74,29h1v1h-1z M76,29h1v1h-1z M77,29h1v1h-1z M79,29h1v1h-1z M80,29h1v1h-1z M83,29h1v1h-1z M85,29h1v1h-1z M86,29h1v1h-1z M87,29h1v1h-1z M88,29h1v1h-1z M91,29h1v1h-1z M92,29h1v1h-1z M97,29h1v1h-1z M99,29h1v1h-1z M100,29h1v1h-1z M104,29h1v1h-1z M6,30h1v1h-1z M8,30h1v1h-1z M9,30h1v1h-1z M10,30h1v1h-1z M11,30h1v1h-1z M12,30h1v1h-1z M14,30h1v1h-1z M15,30h1v1h-1z M16,30h1v1h-1z M19,30h1v1h-1z M20,30h1v1h-1z M21,30h1v1h-1z M25,30h1v1h-1z M28,30h1v1h-1z M30,30h1v1h-1z M31,30h1v1h-1z M32,30h1v1h-1z M33,30h1v1h-1z M34,30h1v1h-1z M35,30h1v1h-1z M39,30h1v1h-1z M40,30h1v1h-1z M41,30h1v1h-1z M42,30h1v1h-1z M43,30h1v1h-1z M46,30h1v1h-1z M51,30h1v1h-1z M52,30h1v1h-1z M53,30h1v1h-1z M54,30h1v1h-1z M55,30h1v1h-1z M56,30h1v1h-1z M59,30h1v1h-1z M60,30h1v1h-1z M62,30h1v1h-1z M64,30h1v1h-1z M66,30h1v1h-1z M69,30h1v1h-1z M71,30h1v1h-1z M72,30h1v1h-1z M73,30h1v1h-1z M74,30h1v1h-1z M75,30h1v1h-1z M76,30h1v1h-1z M77,30h1v1h-1z M78,30h1v1h-1z M81,30h1v1h-1z M82,30h1v1h-1z M83,30h1v1h-1z M84,30h1v1h-1z M87,30h1v1h-1z M88,30h1v1h-1z M90,30h1v1h-1z M91,30h1v1h-1z M92,30h1v1h-1z M93,30h1v1h-1z M95,30h1v1h-1z M96,30h1v1h-1z M97,30h1v1h-1z M98,30h1v1h-1z M99,30h1v1h-1z M100,30h1v1h-1z M102,30h1v1h-1zM4,31h1v1h-1z M8,31h1v1h-1z M12,31h1v1h-1z M13,31h1v1h-1z M15,31h1v1h-1z M16,31h1v1h-1z M17,31h1v1h-1z M30,31h1v1h-1z M34,31h1v1h-1z M35,31h1v1h-1z M37,31h1v1h-1z M39,31h1v1h-1z M40,31h1v1h-1z M42,31h1v1h-1z M44,31h1v1h-1z M45,31h1v1h-1z M46,31h1v1h-1z M48,31h1v1h-1z M51,31h1v1h-1z M52,31h1v1h-1z M56,31h1v1h-1z M58,31h1v1h-1z M61,31h1v1h-1z M62,31h1v1h-1z M65,31h1v1h-1z M67,31h1v1h-1z M69,31h1v1h-1z M72,31h1v1h-1z M74,31h1v1h-1z M78,31h1v1h-1z M80,31h1v1h-1z M84,31h1v1h-1z M86,31h1v1h-1z M87,31h1v1h-1z M89,31h1v1h-1z M90,31h1v1h-1z M91,31h1v1h-1z M92,31h1v1h-1z M95,31h1v1h-1z M96,31h1v1h-1z M100,31h1v1h-1z M102,31h1v1h-1zM4,32h1v1h-1z M5,32h1v1h-1z M7,32h1v1h-1z M8,32h1v1h-1z M10,32h1v1h-1z M12,32h1v1h-1z M14,32h1v1h-1z M18,32h1v1h-1z M21,32h1v1h-1z M26,32h1v1h-1z M27,32h1v1h-1z M30,32h1v1h-1z M32,32h1v1h-1z M34,32h1v1h-1z M38,32h1v1h-1z M43,32h1v1h-1z M46,32h1v1h-1z M49,32h1v1h-1z M50,32h1v1h-1z M52,32h1v1h-1z M54,32h1v1h-1z M56,32h1v1h-1z M60,32h1v1h-1z M61,32h1v1h-1z M66,32h1v1h-1z M69,32h1v1h-1z M71,32h1v1h-1z M72,32h1v1h-1z M74,32h1v1h-1z M76,32h1v1h-1z M78,32h1v1h-1z M80,32h1v1h-1z M83,32h1v1h-1z M89,32h1v1h-1z M92,32h1v1h-1z M93,32h1v1h-1z M96,32h1v1h-1z M98,32h1v1h-1z M100,32h1v1h-1z M102,32h1v1h-1zM4,33h1v1h-1z M7,33h1v1h-1z M8,33h1v1h-1z M12,33h1v1h-1z M13,33h1v1h-1z M15,33h1v1h-1z M16,33h1v1h-1z M18,33h1v1h-1z M19,33h1v1h-1z M21,33h1v1h-1z M22,33h1v1h-1z M23,33h1v1h-1z M24,33h1v1h-1z M25,33h1v1h-1z M26,33h1v1h-1z M27,33h1v1h-1z M30,33h1v1h-1z M34,33h1v1h-1z M39,33h1v1h-1z M42,33h1v1h-1z M43,33h1v1h-1z M44,33h1v1h-1z M46,33h1v1h-1z M47,33h1v1h-1z M49,33h1v1h-1z M51,33h1v1h-1z M52,33h1v1h-1z M56,33h1v1h-1z M59,33h1v1h-1z M61,33h1v1h-1z M62,33h1v1h-1z M63,33h1v1h-1z M64,33h1v1h-1z M65,33h1v1h-1z M66,33h1v1h-1z M68,33h1v1h-1z M71,33h1v1h-1z M74,33h1v1h-1z M78,33h1v1h-1z M79,33h1v1h-1z M80,33h1v1h-1z M81,33h1v1h-1z M86,33h1v1h-1z M89,33h1v1h-1z M90,33h1v1h-1z M92,33h1v1h-1z M96,33h1v1h-1z M100,33h1v1h-1z M103,33h1v1h-1zM4,34h1v1h-1z M6,34h1v1h-1z M7,34h1v1h-1z M8,34h1v1h-1z M9,34h1v1h-1z M10,34h1v1h-1z M11,34h1v1h-1z M12,34h1v1h-1z M13,34h1v1h-1z M14,34h1v1h-1z M21,34h1v1h-1z M22,34h1v1h-1z M26,34h1v1h-1z M30,34h1v1h-1z M31,34h1v1h-1z M32,34h1v1h-1z M33,34h1v1h-1z M34,34h1v1h-1z M35,34h1v1h-1z M36,34h1v1h-1z M40,34h1v1h-1z M43,34h1v1h-1z M45,34h1v1h-1z M49,34h1v1h-1z M52,34h1v1h-1z M53,34h1v1h-1z M54,34h1v1h-1z M55,34h1v1h-1z M56,34h1v1h-1z M58,34h1v1h-1z M60,34h1v1h-1z M63,34h1v1h-1z M64,34h1v1h-1z M65,34h1v1h-1z M67,34h1v1h-1z M70,34h1v1h-1z M71,34h1v1h-1z M72,34h1v1h-1z M73,34h1v1h-1z M74,34h1v1h-1z M75,34h1v1h-1z M76,34h1v1h-1z M77,34h1v1h-1z M78,34h1v1h-1z M79,34h1v1h-1z M83,34h1v1h-1z M87,34h1v1h-1z M88,34h1v1h-1z M91,34h1v1h-1z M92,34h1v1h-1z M93,34h1v1h-1z M95,34h1v1h-1z M96,34h1v1h-1z M97,34h1v1h-1z M98,34h1v1h-1z M99,34h1v1h-1z M100,34h1v1h-1z M103,34h1v1h-1z M104,34h1v1h-1zM4,35h1v1h-1z M9,35h1v1h-1z M11,35h1v1h-1z M14,35h1v1h-1z M16,35h1v1h-1z M17,35h1v1h-1z M18,35h1v1h-1z M21,35h1v1h-1z M25,35h1v1h-1z M29,35h1v1h-1z M31,35h1v1h-1z M32,35h1v1h-1z M36,35h1v1h-1z M37,35h1v1h-1z M41,35h1v1h-1z M42,35h1v1h-1z M43,35h1v1h-1z M45,35h1v1h-1z M47,35h1v1h-1z M48,35h1v1h-1z M50,35h1v1h-1z M52,35h1v1h-1z M53,35h1v1h-1z M55,35h1v1h-1z M56,35h1v1h-1z M60,35h1v1h-1z M62,35h1v1h-1z M64,35h1v1h-1z M65,35h1v1h-1z M68,35h1v1h-1z M70,35h1v1h-1z M71,35h1v1h-1z M72,35h1v1h-1z M73,35h1v1h-1z M74,35h1v1h-1z M75,35h1v1h-1z M76,35h1v1h-1z M77,35h1v1h-1z M78,35h1v1h-1z M82,35h1v1h-1z M83,35h1v1h-1z M86,35h1v1h-1z M87,35h1v1h-1z M88,35h1v1h-1z M91,35h1v1h-1z M96,35h1v1h-1z M97,35h1v1h-1z M98,35h1v1h-1z M99,35h1v1h-1z M101,35h1v1h-1z M102,35h1v1h-1z M103,35h1v1h-1z M104,35h1v1h-1zM4,36h1v1h-1z M5,36h1v1h-1z M6,36h1v1h-1z M8,36h1v1h-1z M10,36h1v1h-1z M13,36h1v1h-1z M15,36h1v1h-1z M16,36h1v1h-1z M17,36h1v1h-1z M18,36h1v1h-1z M19,36h1v1h-1z M20,36h1v1h-1z M24,36h1v1h-1z M25,36h1v1h-1z M26,36h1v1h-1z M31,36h1v1h-1z M34,36h1v1h-1z M35,36h1v1h-1z M36,36h1v1h-1z M39,36h1v1h-1z M40,36h1v1h-1z M45,36h1v1h-1z M47,36h1v1h-1z M51,36h1v1h-1z M54,36h1v1h-1z M55,36h1v1h-1z M63,36h1v1h-1z M64,36h1v1h-1z M69,36h1v1h-1z M72,36h1v1h-1z M73,36h1v1h-1z M75,36h1v1h-1z M80,36h1v1h-1z M81,36h1v1h-1z M82,36h1v1h-1z M83,36h1v1h-1z M86,36h1v1h-1z M89,36h1v1h-1z M92,36h1v1h-1z M97,36h1v1h-1z M98,36h1v1h-1z M99,36h1v1h-1z M100,36h1v1h-1z M101,36h1v1h-1z M103,36h1v1h-1z M104,36h1v1h-1zM4,37h1v1h-1z M5,37h1v1h-1z M6,37h1v1h-1z M15,37h1v1h-1z M21,37h1v1h-1z M26,37h1v1h-1z M28,37h1v1h-1z M29,37h1v1h-1z M30,37h1v1h-1z M31,37h1v1h-1z M32,37h1v1h-1z M35,37h1v1h-1z M37,37h1v1h-1z M39,37h1v1h-1z M40,37h1v1h-1z M41,37h1v1h-1z M43,37h1v1h-1z M45,37h1v1h-1z M47,37h1v1h-1z M49,37h1v1h-1z M50,37h1v1h-1z M51,37h1v1h-1z M54,37h1v1h-1z M57,37h1v1h-1z M59,37h1v1h-1z M60,37h1v1h-1z M61,37h1v1h-1z M63,37h1v1h-1z M64,37h1v1h-1z M65,37h1v1h-1z M68,37h1v1h-1z M69,37h1v1h-1z M70,37h1v1h-1z M72,37h1v1h-1z M73,37h1v1h-1z M74,37h1v1h-1z M76,37h1v1h-1z M77,37h1v1h-1z M78,37h1v1h-1z M79,37h1v1h-1z M81,37h1v1h-1z M82,37h1v1h-1z M83,37h1v1h-1z M85,37h1v1h-1z M86,37h1v1h-1z M87,37h1v1h-1z M94,37h1v1h-1z M96,37h1v1h-1z M98,37h1v1h-1z M100,37h1v1h-1z M101,37h1v1h-1z M6,38h1v1h-1z M7,38h1v1h-1z M9,38h1v1h-1z M10,38h1v1h-1z M12,38h1v1h-1z M13,38h1v1h-1z M15,38h1v1h-1z M16,38h1v1h-1z M20,38h1v1h-1z M23,38h1v1h-1z M24,38h1v1h-1z M25,38h1v1h-1z M26,38h1v1h-1z M29,38h1v1h-1z M30,38h1v1h-1z M31,38h1v1h-1z M34,38h1v1h-1z M35,38h1v1h-1z M43,38h1v1h-1z M44,38h1v1h-1z M45,38h1v1h-1z M46,38h1v1h-1z M47,38h1v1h-1z M52,38h1v1h-1z M54,38h1v1h-1z M57,38h1v1h-1z M58,38h1v1h-1z M60,38h1v1h-1z M61,38h1v1h-1z M63,38h1v1h-1z M64,38h1v1h-1z M65,38h1v1h-1z M67,38h1v1h-1z M68,38h1v1h-1z M70,38h1v1h-1z M73,38h1v1h-1z M76,38h1v1h-1z M78,38h1v1h-1z M82,38h1v1h-1z M85,38h1v1h-1z M87,38h1v1h-1z M88,38h1v1h-1z M90,38h1v1h-1z M91,38h1v1h-1z M94,38h1v1h-1z M96,38h1v1h-1z M98,38h1v1h-1z M100,38h1v1h-1z M101,38h1v1h-1z M104,38h1v1h-1zM4,39h1v1h-1z M5,39h1v1h-1z M11,39h1v1h-1z M15,39h1v1h-1z M16,39h1v1h-1z M17,39h1v1h-1z M20,39h1v1h-1z M21,39h1v1h-1z M22,39h1v1h-1z M23,39h1v1h-1z M25,39h1v1h-1z M26,39h1v1h-1z M28,39h1v1h-1z M29,39h1v1h-1z M31,39h1v1h-1z M32,39h1v1h-1z M33,39h1v1h-1z M34,39h1v1h-1z M35,39h1v1h-1z M37,39h1v1h-1z M38,39h1v1h-1z M39,39h1v1h-1z M41,39h1v1h-1z M43,39h1v1h-1z M44,39h1v1h-1z M52,39h1v1h-1z M53,39h1v1h-1z M55,39h1v1h-1z M57,39h1v1h-1z M58,39h1v1h-1z M61,39h1v1h-1z M65,39h1v1h-1z M66,39h1v1h-1z M67,39h1v1h-1z M68,39h1v1h-1z M70,39h1v1h-1z M75,39h1v1h-1z M77,39h1v1h-1z M80,39h1v1h-1z M82,39h1v1h-1z M84,39h1v1h-1z M85,39h1v1h-1z M86,39h1v1h-1z M89,39h1v1h-1z M91,39h1v1h-1z M93,39h1v1h-1z M94,39h1v1h-1z M98,39h1v1h-1z M99,39h1v1h-1z M103,39h1v1h-1zM4,40h1v1h-1z M5,40h1v1h-1z M6,40h1v1h-1z M7,40h1v1h-1z M9,40h1v1h-1z M10,40h1v1h-1z M11,40h1v1h-1z M12,40h1v1h-1z M13,40h1v1h-1z M16,40h1v1h-1z M17,40h1v1h-1z M18,40h1v1h-1z M21,40h1v1h-1z M22,40h1v1h-1z M25,40h1v1h-1z M26,40h1v1h-1z M29,40h1v1h-1z M30,40h1v1h-1z M31,40h1v1h-1z M32,40h1v1h-1z M33,40h1v1h-1z M35,40h1v1h-1z M36,40h1v1h-1z M37,40h1v1h-1z M41,40h1v1h-1z M42,40h1v1h-1z M43,40h1v1h-1z M44,40h1v1h-1z M45,40h1v1h-1z M46,40h1v1h-1z M50,40h1v1h-1z M52,40h1v1h-1z M53,40h1v1h-1z M60,40h1v1h-1z M61,40h1v1h-1z M68,40h1v1h-1z M69,40h1v1h-1z M77,40h1v1h-1z M79,40h1v1h-1z M81,40h1v1h-1z M82,40h1v1h-1z M83,40h1v1h-1z M84,40h1v1h-1z M87,40h1v1h-1z M88,40h1v1h-1z M92,40h1v1h-1z M95,40h1v1h-1z M96,40h1v1h-1z M97,40h1v1h-1z M98,40h1v1h-1z M103,40h1v1h-1z M5,41h1v1h-1z M6,41h1v1h-1z M7,41h1v1h-1z M8,41h1v1h-1z M9,41h1v1h-1z M12,41h1v1h-1z M15,41h1v1h-1z M16,41h1v1h-1z M17,41h1v1h-1z M18,41h1v1h-1z M21,41h1v1h-1z M24,41h1v1h-1z M27,41h1v1h-1z M28,41h1v1h-1z M29,41h1v1h-1z M30,41h1v1h-1z M31,41h1v1h-1z M32,41h1v1h-1z M38,41h1v1h-1z M39,41h1v1h-1z M41,41h1v1h-1z M42,41h1v1h-1z M43,41h1v1h-1z M46,41h1v1h-1z M48,41h1v1h-1z M50,41h1v1h-1z M51,41h1v1h-1z M54,41h1v1h-1z M55,41h1v1h-1z M56,41h1v1h-1z M60,41h1v1h-1z M61,41h1v1h-1z M63,41h1v1h-1z M64,41h1v1h-1z M65,41h1v1h-1z M68,41h1v1h-1z M71,41h1v1h-1z M72,41h1v1h-1z M73,41h1v1h-1z M74,41h1v1h-1z M75,41h1v1h-1z M76,41h1v1h-1z M81,41h1v1h-1z M84,41h1v1h-1z M89,41h1v1h-1z M90,41h1v1h-1z M93,41h1v1h-1z M94,41h1v1h-1z M96,41h1v1h-1z M97,41h1v1h-1z M98,41h1v1h-1z M99,41h1v1h-1z M103,41h1v1h-1z M104,41h1v1h-1z M7,42h1v1h-1z M10,42h1v1h-1z M13,42h1v1h-1z M14,42h1v1h-1z M16,42h1v1h-1z M17,42h1v1h-1z M18,42h1v1h-1z M19,42h1v1h-1z M23,42h1v1h-1z M24,42h1v1h-1z M26,42h1v1h-1z M27,42h1v1h-1z M31,42h1v1h-1z M32,42h1v1h-1z M36,42h1v1h-1z M38,42h1v1h-1z M42,42h1v1h-1z M43,42h1v1h-1z M48,42h1v1h-1z M49,42h1v1h-1z M51,42h1v1h-1z M52,42h1v1h-1z M55,42h1v1h-1z M56,42h1v1h-1z M57,42h1v1h-1z M58,42h1v1h-1z M63,42h1v1h-1z M64,42h1v1h-1z M66,42h1v1h-1z M68,42h1v1h-1z M70,42h1v1h-1z M72,42h1v1h-1z M73,42h1v1h-1z M75,42h1v1h-1z M76,42h1v1h-1z M78,42h1v1h-1z M81,42h1v1h-1z M82,42h1v1h-1z M85,42h1v1h-1z M86,42h1v1h-1z M87,42h1v1h-1z M90,42h1v1h-1z M91,42h1v1h-1z M93,42h1v1h-1z M94,42h1v1h-1z M95,42h1v1h-1z M102,42h1v1h-1z M103,42h1v1h-1zM4,43h1v1h-1z M6,43h1v1h-1z M7,43h1v1h-1z M8,43h1v1h-1z M9,43h1v1h-1z M14,43h1v1h-1z M15,43h1v1h-1z M17,43h1v1h-1z M19,43h1v1h-1z M21,43h1v1h-1z M22,43h1v1h-1z M23,43h1v1h-1z M24,43h1v1h-1z M29,43h1v1h-1z M30,43h1v1h-1z M32,43h1v1h-1z M34,43h1v1h-1z M36,43h1v1h-1z M37,43h1v1h-1z M38,43h1v1h-1z M39,43h1v1h-1z M40,43h1v1h-1z M45,43h1v1h-1z M47,43h1v1h-1z M50,43h1v1h-1z M51,43h1v1h-1z M52,43h1v1h-1z M53,43h1v1h-1z M54,43h1v1h-1z M55,43h1v1h-1z M59,43h1v1h-1z M61,43h1v1h-1z M62,43h1v1h-1z M63,43h1v1h-1z M65,43h1v1h-1z M66,43h1v1h-1z M68,43h1v1h-1z M70,43h1v1h-1z M72,43h1v1h-1z M75,43h1v1h-1z M76,43h1v1h-1z M77,43h1v1h-1z M78,43h1v1h-1z M79,43h1v1h-1z M81,43h1v1h-1z M83,43h1v1h-1z M84,43h1v1h-1z M85,43h1v1h-1z M86,43h1v1h-1z M89,43h1v1h-1z M91,43h1v1h-1z M95,43h1v1h-1z M98,43h1v1h-1z M99,43h1v1h-1z M100,43h1v1h-1z M102,43h1v1h-1z M103,43h1v1h-1z M104,43h1v1h-1z M5,44h1v1h-1z M6,44h1v1h-1z M7,44h1v1h-1z M10,44h1v1h-1z M13,44h1v1h-1z M15,44h1v1h-1z M17,44h1v1h-1z M18,44h1v1h-1z M20,44h1v1h-1z M21,44h1v1h-1z M22,44h1v1h-1z M24,44h1v1h-1z M26,44h1v1h-1z M31,44h1v1h-1z M37,44h1v1h-1z M40,44h1v1h-1z M43,44h1v1h-1z M48,44h1v1h-1z M50,44h1v1h-1z M51,44h1v1h-1z M52,44h1v1h-1z M54,44h1v1h-1z M57,44h1v1h-1z M62,44h1v1h-1z M64,44h1v1h-1z M65,44h1v1h-1z M68,44h1v1h-1z M69,44h1v1h-1z M71,44h1v1h-1z M72,44h1v1h-1z M76,44h1v1h-1z M82,44h1v1h-1z M85,44h1v1h-1z M88,44h1v1h-1z M90,44h1v1h-1z M91,44h1v1h-1z M92,44h1v1h-1z M93,44h1v1h-1z M96,44h1v1h-1z M97,44h1v1h-1z M98,44h1v1h-1z M99,44h1v1h-1z M100,44h1v1h-1z M101,44h1v1h-1z M102,44h1v1h-1z M104,44h1v1h-1zM4,45h1v1h-1z M5,45h1v1h-1z M6,45h1v1h-1z M8,45h1v1h-1z M11,45h1v1h-1z M12,45h1v1h-1z M16,45h1v1h-1z M19,45h1v1h-1z M20,45h1v1h-1z M21,45h1v1h-1z M25,45h1v1h-1z M27,45h1v1h-1z M29,45h1v1h-1z M31,45h1v1h-1z M33,45h1v1h-1z M35,45h1v1h-1z M40,45h1v1h-1z M49,45h1v1h-1z M51,45h1v1h-1z M52,45h1v1h-1z M53,45h1v1h-1z M54,45h1v1h-1z M57,45h1v1h-1z M60,45h1v1h-1z M61,45h1v1h-1z M62,45h1v1h-1z M64,45h1v1h-1z M69,45h1v1h-1z M70,45h1v1h-1z M71,45h1v1h-1z M73,45h1v1h-1z M77,45h1v1h-1z M78,45h1v1h-1z M80,45h1v1h-1z M82,45h1v1h-1z M86,45h1v1h-1z M87,45h1v1h-1z M90,45h1v1h-1z M91,45h1v1h-1z M93,45h1v1h-1z M94,45h1v1h-1z M95,45h1v1h-1z M97,45h1v1h-1z M98,45h1v1h-1z M99,45h1v1h-1z M101,45h1v1h-1zM4,46h1v1h-1z M5,46h1v1h-1z M6,46h1v1h-1z M8,46h1v1h-1z M9,46h1v1h-1z M10,46h1v1h-1z M11,46h1v1h-1z M12,46h1v1h-1z M13,46h1v1h-1z M14,46h1v1h-1z M16,46h1v1h-1z M17,46h1v1h-1z M18,46h1v1h-1z M19,46h1v1h-1z M25,46h1v1h-1z M26,46h1v1h-1z M27,46h1v1h-1z M28,46h1v1h-1z M29,46h1v1h-1z M31,46h1v1h-1z M33,46h1v1h-1z M34,46h1v1h-1z M35,46h1v1h-1z M36,46h1v1h-1z M38,46h1v1h-1z M40,46h1v1h-1z M41,46h1v1h-1z M43,46h1v1h-1z M48,46h1v1h-1z M49,46h1v1h-1z M50,46h1v1h-1z M51,46h1v1h-1z M54,46h1v1h-1z M55,46h1v1h-1z M57,46h1v1h-1z M58,46h1v1h-1z M61,46h1v1h-1z M64,46h1v1h-1z M65,46h1v1h-1z M69,46h1v1h-1z M70,46h1v1h-1z M71,46h1v1h-1z M73,46h1v1h-1z M74,46h1v1h-1z M75,46h1v1h-1z M76,46h1v1h-1z M81,46h1v1h-1z M82,46h1v1h-1z M83,46h1v1h-1z M84,46h1v1h-1z M85,46h1v1h-1z M86,46h1v1h-1z M88,46h1v1h-1z M89,46h1v1h-1z M92,46h1v1h-1z M95,46h1v1h-1z M99,46h1v1h-1z M101,46h1v1h-1z M102,46h1v1h-1zM4,47h1v1h-1z M5,47h1v1h-1z M6,47h1v1h-1z M8,47h1v1h-1z M9,47h1v1h-1z M12,47h1v1h-1z M13,47h1v1h-1z M14,47h1v1h-1z M16,47h1v1h-1z M17,47h1v1h-1z M18,47h1v1h-1z M20,47h1v1h-1z M22,47h1v1h-1z M24,47h1v1h-1z M26,47h1v1h-1z M28,47h1v1h-1z M36,47h1v1h-1z M37,47h1v1h-1z M38,47h1v1h-1z M41,47h1v1h-1z M43,47h1v1h-1z M45,47h1v1h-1z M50,47h1v1h-1z M51,47h1v1h-1z M58,47h1v1h-1z M59,47h1v1h-1z M61,47h1v1h-1z M62,47h1v1h-1z M64,47h1v1h-1z M66,47h1v1h-1z M68,47h1v1h-1z M72,47h1v1h-1z M73,47h1v1h-1z M76,47h1v1h-1z M77,47h1v1h-1z M78,47h1v1h-1z M79,47h1v1h-1z M84,47h1v1h-1z M87,47h1v1h-1z M89,47h1v1h-1z M90,47h1v1h-1z M92,47h1v1h-1z M94,47h1v1h-1z M95,47h1v1h-1z M98,47h1v1h-1z M102,47h1v1h-1z M104,47h1v1h-1zM4,48h1v1h-1z M5,48h1v1h-1z M6,48h1v1h-1z M7,48h1v1h-1z M8,48h1v1h-1z M10,48h1v1h-1z M13,48h1v1h-1z M14,48h1v1h-1z M15,48h1v1h-1z M18,48h1v1h-1z M19,48h1v1h-1z M20,48h1v1h-1z M21,48h1v1h-1z M24,48h1v1h-1z M25,48h1v1h-1z M26,48h1v1h-1z M29,48h1v1h-1z M31,48h1v1h-1z M33,48h1v1h-1z M34,48h1v1h-1z M35,48h1v1h-1z M37,48h1v1h-1z M38,48h1v1h-1z M41,48h1v1h-1z M42,48h1v1h-1z M43,48h1v1h-1z M44,48h1v1h-1z M46,48h1v1h-1z M52,48h1v1h-1z M57,48h1v1h-1z M58,48h1v1h-1z M63,48h1v1h-1z M65,48h1v1h-1z M66,48h1v1h-1z M68,48h1v1h-1z M69,48h1v1h-1z M71,48h1v1h-1z M72,48h1v1h-1z M73,48h1v1h-1z M74,48h1v1h-1z M75,48h1v1h-1z M79,48h1v1h-1z M80,48h1v1h-1z M81,48h1v1h-1z M84,48h1v1h-1z M85,48h1v1h-1z M86,48h1v1h-1z M87,48h1v1h-1z M92,48h1v1h-1z M93,48h1v1h-1z M96,48h1v1h-1z M98,48h1v1h-1z M104,48h1v1h-1z M7,49h1v1h-1z M8,49h1v1h-1z M9,49h1v1h-1z M13,49h1v1h-1z M15,49h1v1h-1z M16,49h1v1h-1z M17,49h1v1h-1z M19,49h1v1h-1z M20,49h1v1h-1z M22,49h1v1h-1z M23,49h1v1h-1z M26,49h1v1h-1z M28,49h1v1h-1z M29,49h1v1h-1z M31,49h1v1h-1z M32,49h1v1h-1z M36,49h1v1h-1z M38,49h1v1h-1z M39,49h1v1h-1z M44,49h1v1h-1z M47,49h1v1h-1z M48,49h1v1h-1z M52,49h1v1h-1z M53,49h1v1h-1z M54,49h1v1h-1z M56,49h1v1h-1z M57,49h1v1h-1z M59,49h1v1h-1z M61,49h1v1h-1z M62,49h1v1h-1z M63,49h1v1h-1z M64,49h1v1h-1z M65,49h1v1h-1z M66,49h1v1h-1z M68,49h1v1h-1z M69,49h1v1h-1z M71,49h1v1h-1z M73,49h1v1h-1z M76,49h1v1h-1z M78,49h1v1h-1z M80,49h1v1h-1z M83,49h1v1h-1z M84,49h1v1h-1z M85,49h1v1h-1z M86,49h1v1h-1z M88,49h1v1h-1z M89,49h1v1h-1z M90,49h1v1h-1z M93,49h1v1h-1z M95,49h1v1h-1z M96,49h1v1h-1z M98,49h1v1h-1z M99,49h1v1h-1z M101,49h1v1h-1zM4,50h1v1h-1z M6,50h1v1h-1z M7,50h1v1h-1z M8,50h1v1h-1z M9,50h1v1h-1z M10,50h1v1h-1z M13,50h1v1h-1z M15,50h1v1h-1z M19,50h1v1h-1z M21,50h1v1h-1z M23,50h1v1h-1z M24,50h1v1h-1z M26,50h1v1h-1z M27,50h1v1h-1z M30,50h1v1h-1z M31,50h1v1h-1z M34,50h1v1h-1z M36,50h1v1h-1z M39,50h1v1h-1z M44,50h1v1h-1z M48,50h1v1h-1z M49,50h1v1h-1z M51,50h1v1h-1z M52,50h1v1h-1z M53,50h1v1h-1z M56,50h1v1h-1z M58,50h1v1h-1z M60,50h1v1h-1z M61,50h1v1h-1z M63,50h1v1h-1z M64,50h1v1h-1z M65,50h1v1h-1z M66,50h1v1h-1z M73,50h1v1h-1z M75,50h1v1h-1z M76,50h1v1h-1z M78,50h1v1h-1z M80,50h1v1h-1z M83,50h1v1h-1z M84,50h1v1h-1z M85,50h1v1h-1z M86,50h1v1h-1z M89,50h1v1h-1z M91,50h1v1h-1z M92,50h1v1h-1z M93,50h1v1h-1z M98,50h1v1h-1z M99,50h1v1h-1z M100,50h1v1h-1z M101,50h1v1h-1z M102,50h1v1h-1z M103,50h1v1h-1z M5,51h1v1h-1z M6,51h1v1h-1z M9,51h1v1h-1z M11,51h1v1h-1z M14,51h1v1h-1z M18,51h1v1h-1z M20,51h1v1h-1z M21,51h1v1h-1z M24,51h1v1h-1z M30,51h1v1h-1z M31,51h1v1h-1z M33,51h1v1h-1z M34,51h1v1h-1z M36,51h1v1h-1z M37,51h1v1h-1z M38,51h1v1h-1z M41,51h1v1h-1z M43,51h1v1h-1z M44,51h1v1h-1z M45,51h1v1h-1z M46,51h1v1h-1z M47,51h1v1h-1z M49,51h1v1h-1z M53,51h1v1h-1z M56,51h1v1h-1z M62,51h1v1h-1z M64,51h1v1h-1z M65,51h1v1h-1z M67,51h1v1h-1z M68,51h1v1h-1z M72,51h1v1h-1z M73,51h1v1h-1z M74,51h1v1h-1z M75,51h1v1h-1z M78,51h1v1h-1z M82,51h1v1h-1z M83,51h1v1h-1z M84,51h1v1h-1z M85,51h1v1h-1z M87,51h1v1h-1z M89,51h1v1h-1z M90,51h1v1h-1z M91,51h1v1h-1z M92,51h1v1h-1z M93,51h1v1h-1z M94,51h1v1h-1z M95,51h1v1h-1z M96,51h1v1h-1z M97,51h1v1h-1z M98,51h1v1h-1z M99,51h1v1h-1z M104,51h1v1h-1z M8,52h1v1h-1z M9,52h1v1h-1z M10,52h1v1h-1z M11,52h1v1h-1z M12,52h1v1h-1z M13,52h1v1h-1z M15,52h1v1h-1z M16,52h1v1h-1z M19,52h1v1h-1z M20,52h1v1h-1z M24,52h1v1h-1z M25,52h1v1h-1z M26,52h1v1h-1z M30,52h1v1h-1z M31,52h1v1h-1z M32,52h1v1h-1z M33,52h1v1h-1z M34,52h1v1h-1z M38,52h1v1h-1z M40,52h1v1h-1z M44,52h1v1h-1z M48,52h1v1h-1z M49,52h1v1h-1z M50,52h1v1h-1z M51,52h1v1h-1z M52,52h1v1h-1z M53,52h1v1h-1z M54,52h1v1h-1z M55,52h1v1h-1z M56,52h1v1h-1z M58,52h1v1h-1z M60,52h1v1h-1z M66,52h1v1h-1z M67,52h1v1h-1z M68,52h1v1h-1z M69,52h1v1h-1z M71,52h1v1h-1z M73,52h1v1h-1z M74,52h1v1h-1z M75,52h1v1h-1z M76,52h1v1h-1z M77,52h1v1h-1z M78,52h1v1h-1z M79,52h1v1h-1z M83,52h1v1h-1z M85,52h1v1h-1z M89,52h1v1h-1z M91,52h1v1h-1z M92,52h1v1h-1z M93,52h1v1h-1z M95,52h1v1h-1z M96,52h1v1h-1z M97,52h1v1h-1z M98,52h1v1h-1z M99,52h1v1h-1z M100,52h1v1h-1z M104,52h1v1h-1z M6,53h1v1h-1z M7,53h1v1h-1z M8,53h1v1h-1z M12,53h1v1h-1z M13,53h1v1h-1z M14,53h1v1h-1z M17,53h1v1h-1z M22,53h1v1h-1z M23,53h1v1h-1z M26,53h1v1h-1z M30,53h1v1h-1z M34,53h1v1h-1z M40,53h1v1h-1z M42,53h1v1h-1z M43,53h1v1h-1z M44,53h1v1h-1z M47,53h1v1h-1z M49,53h1v1h-1z M51,53h1v1h-1z M52,53h1v1h-1z M56,53h1v1h-1z M59,53h1v1h-1z M60,53h1v1h-1z M62,53h1v1h-1z M64,53h1v1h-1z M66,53h1v1h-1z M68,53h1v1h-1z M69,53h1v1h-1z M70,53h1v1h-1z M71,53h1v1h-1z M72,53h1v1h-1z M73,53h1v1h-1z M74,53h1v1h-1z M78,53h1v1h-1z M79,53h1v1h-1z M80,53h1v1h-1z M81,53h1v1h-1z M85,53h1v1h-1z M87,53h1v1h-1z M88,53h1v1h-1z M89,53h1v1h-1z M93,53h1v1h-1z M94,53h1v1h-1z M96,53h1v1h-1z M100,53h1v1h-1z M102,53h1v1h-1z M104,53h1v1h-1zM4,54h1v1h-1z M7,54h1v1h-1z M8,54h1v1h-1z M10,54h1v1h-1z M12,54h1v1h-1z M16,54h1v1h-1z M17,54h1v1h-1z M18,54h1v1h-1z M19,54h1v1h-1z M20,54h1v1h-1z M22,54h1v1h-1z M23,54h1v1h-1z M24,54h1v1h-1z M26,54h1v1h-1z M29,54h1v1h-1z M30,54h1v1h-1z M32,54h1v1h-1z M34,54h1v1h-1z M36,54h1v1h-1z M41,54h1v1h-1z M43,54h1v1h-1z M44,54h1v1h-1z M45,54h1v1h-1z M48,54h1v1h-1z M49,54h1v1h-1z M52,54h1v1h-1z M54,54h1v1h-1z M56,54h1v1h-1z M57,54h1v1h-1z M58,54h1v1h-1z M59,54h1v1h-1z M63,54h1v1h-1z M65,54h1v1h-1z M66,54h1v1h-1z M68,54h1v1h-1z M70,54h1v1h-1z M74,54h1v1h-1z M76,54h1v1h-1z M78,54h1v1h-1z M84,54h1v1h-1z M86,54h1v1h-1z M88,54h1v1h-1z M92,54h1v1h-1z M93,54h1v1h-1z M94,54h1v1h-1z M95,54h1v1h-1z M96,54h1v1h-1z M98,54h1v1h-1z M100,54h1v1h-1z M101,54h1v1h-1z M102,54h1v1h-1z M103,54h1v1h-1zM4,55h1v1h-1z M7,55h1v1h-1z M8,55h1v1h-1z M12,55h1v1h-1z M14,55h1v1h-1z M16,55h1v1h-1z M20,55h1v1h-1z M21,55h1v1h-1z M22,55h1v1h-1z M23,55h1v1h-1z M24,55h1v1h-1z M25,55h1v1h-1z M26,55h1v1h-1z M28,55h1v1h-1z M30,55h1v1h-1z M34,55h1v1h-1z M35,55h1v1h-1z M36,55h1v1h-1z M37,55h1v1h-1z M39,55h1v1h-1z M40,55h1v1h-1z M42,55h1v1h-1z M44,55h1v1h-1z M48,55h1v1h-1z M50,55h1v1h-1z M52,55h1v1h-1z M56,55h1v1h-1z M58,55h1v1h-1z M60,55h1v1h-1z M61,55h1v1h-1z M63,55h1v1h-1z M66,55h1v1h-1z M74,55h1v1h-1z M78,55h1v1h-1z M79,55h1v1h-1z M80,55h1v1h-1z M81,55h1v1h-1z M85,55h1v1h-1z M86,55h1v1h-1z M88,55h1v1h-1z M89,55h1v1h-1z M94,55h1v1h-1z M95,55h1v1h-1z M96,55h1v1h-1z M100,55h1v1h-1z M101,55h1v1h-1z M102,55h1v1h-1zM4,56h1v1h-1z M6,56h1v1h-1z M8,56h1v1h-1z M9,56h1v1h-1z M10,56h1v1h-1z M11,56h1v1h-1z M12,56h1v1h-1z M13,56h1v1h-1z M14,56h1v1h-1z M15,56h1v1h-1z M16,56h1v1h-1z M17,56h1v1h-1z M18,56h1v1h-1z M20,56h1v1h-1z M25,56h1v1h-1z M26,56h1v1h-1z M30,56h1v1h-1z M31,56h1v1h-1z M32,56h1v1h-1z M33,56h1v1h-1z M34,56h1v1h-1z M36,56h1v1h-1z M40,56h1v1h-1z M43,56h1v1h-1z M45,56h1v1h-1z M46,56h1v1h-1z M47,56h1v1h-1z M49,56h1v1h-1z M52,56h1v1h-1z M53,56h1v1h-1z M54,56h1v1h-1z M55,56h1v1h-1z M56,56h1v1h-1z M62,56h1v1h-1z M64,56h1v1h-1z M66,56h1v1h-1z M69,56h1v1h-1z M70,56h1v1h-1z M73,56h1v1h-1z M74,56h1v1h-1z M75,56h1v1h-1z M76,56h1v1h-1z M77,56h1v1h-1z M78,56h1v1h-1z M80,56h1v1h-1z M81,56h1v1h-1z M84,56h1v1h-1z M85,56h1v1h-1z M87,56h1v1h-1z M88,56h1v1h-1z M89,56h1v1h-1z M91,56h1v1h-1z M93,56h1v1h-1z M94,56h1v1h-1z M96,56h1v1h-1z M97,56h1v1h-1z M98,56h1v1h-1z M99,56h1v1h-1z M100,56h1v1h-1z M101,56h1v1h-1z M103,56h1v1h-1z M104,56h1v1h-1zM4,57h1v1h-1z M5,57h1v1h-1z M7,57h1v1h-1z M12,57h1v1h-1z M15,57h1v1h-1z M16,57h1v1h-1z M17,57h1v1h-1z M18,57h1v1h-1z M20,57h1v1h-1z M21,57h1v1h-1z M22,57h1v1h-1z M24,57h1v1h-1z M26,57h1v1h-1z M27,57h1v1h-1z M28,57h1v1h-1z M30,57h1v1h-1z M31,57h1v1h-1z M35,57h1v1h-1z M36,57h1v1h-1z M37,57h1v1h-1z M41,57h1v1h-1z M42,57h1v1h-1z M50,57h1v1h-1z M51,57h1v1h-1z M52,57h1v1h-1z M53,57h1v1h-1z M59,57h1v1h-1z M63,57h1v1h-1z M64,57h1v1h-1z M68,57h1v1h-1z M73,57h1v1h-1z M75,57h1v1h-1z M80,57h1v1h-1z M82,57h1v1h-1z M83,57h1v1h-1z M86,57h1v1h-1z M88,57h1v1h-1z M90,57h1v1h-1z M91,57h1v1h-1z M93,57h1v1h-1z M94,57h1v1h-1z M95,57h1v1h-1z M97,57h1v1h-1z M98,57h1v1h-1z M99,57h1v1h-1z M103,57h1v1h-1zM4,58h1v1h-1z M5,58h1v1h-1z M6,58h1v1h-1z M10,58h1v1h-1z M12,58h1v1h-1z M16,58h1v1h-1z M17,58h1v1h-1z M18,58h1v1h-1z M20,58h1v1h-1z M25,58h1v1h-1z M26,58h1v1h-1z M27,58h1v1h-1z M30,58h1v1h-1z M35,58h1v1h-1z M36,58h1v1h-1z M40,58h1v1h-1z M42,58h1v1h-1z M43,58h1v1h-1z M45,58h1v1h-1z M46,58h1v1h-1z M47,58h1v1h-1z M48,58h1v1h-1z M49,58h1v1h-1z M51,58h1v1h-1z M57,58h1v1h-1z M61,58h1v1h-1z M63,58h1v1h-1z M64,58h1v1h-1z M65,58h1v1h-1z M67,58h1v1h-1z M72,58h1v1h-1z M73,58h1v1h-1z M74,58h1v1h-1z M77,58h1v1h-1z M78,58h1v1h-1z M80,58h1v1h-1z M81,58h1v1h-1z M82,58h1v1h-1z M84,58h1v1h-1z M85,58h1v1h-1z M86,58h1v1h-1z M88,58h1v1h-1z M95,58h1v1h-1z M96,58h1v1h-1z M99,58h1v1h-1z M100,58h1v1h-1z M102,58h1v1h-1z M103,58h1v1h-1zM4,59h1v1h-1z M7,59h1v1h-1z M8,59h1v1h-1z M14,59h1v1h-1z M15,59h1v1h-1z M17,59h1v1h-1z M18,59h1v1h-1z M29,59h1v1h-1z M30,59h1v1h-1z M32,59h1v1h-1z M34,59h1v1h-1z M39,59h1v1h-1z M40,59h1v1h-1z M44,59h1v1h-1z M45,59h1v1h-1z M46,59h1v1h-1z M48,59h1v1h-1z M49,59h1v1h-1z M50,59h1v1h-1z M53,59h1v1h-1z M54,59h1v1h-1z M56,59h1v1h-1z M58,59h1v1h-1z M62,59h1v1h-1z M63,59h1v1h-1z M65,59h1v1h-1z M66,59h1v1h-1z M67,59h1v1h-1z M68,59h1v1h-1z M69,59h1v1h-1z M70,59h1v1h-1z M72,59h1v1h-1z M75,59h1v1h-1z M76,59h1v1h-1z M78,59h1v1h-1z M80,59h1v1h-1z M81,59h1v1h-1z M82,59h1v1h-1z M83,59h1v1h-1z M86,59h1v1h-1z M89,59h1v1h-1z M90,59h1v1h-1z M93,59h1v1h-1z M94,59h1v1h-1z M95,59h1v1h-1z M96,59h1v1h-1z M97,59h1v1h-1z M99,59h1v1h-1z M100,59h1v1h-1z M101,59h1v1h-1zM4,60h1v1h-1z M7,60h1v1h-1z M9,60h1v1h-1z M10,60h1v1h-1z M11,60h1v1h-1z M13,60h1v1h-1z M15,60h1v1h-1z M16,60h1v1h-1z M17,60h1v1h-1z M18,60h1v1h-1z M21,60h1v1h-1z M22,60h1v1h-1z M23,60h1v1h-1z M25,60h1v1h-1z M27,60h1v1h-1z M28,60h1v1h-1z M29,60h1v1h-1z M32,60h1v1h-1z M34,60h1v1h-1z M37,60h1v1h-1z M39,60h1v1h-1z M43,60h1v1h-1z M44,60h1v1h-1z M47,60h1v1h-1z M48,60h1v1h-1z M51,60h1v1h-1z M52,60h1v1h-1z M53,60h1v1h-1z M54,60h1v1h-1z M55,60h1v1h-1z M56,60h1v1h-1z M57,60h1v1h-1z M59,60h1v1h-1z M60,60h1v1h-1z M61,60h1v1h-1z M62,60h1v1h-1z M63,60h1v1h-1z M64,60h1v1h-1z M66,60h1v1h-1z M68,60h1v1h-1z M69,60h1v1h-1z M73,60h1v1h-1z M74,60h1v1h-1z M75,60h1v1h-1z M76,60h1v1h-1z M80,60h1v1h-1z M82,60h1v1h-1z M83,60h1v1h-1z M84,60h1v1h-1z M88,60h1v1h-1z M89,60h1v1h-1z M90,60h1v1h-1z M91,60h1v1h-1z M95,60h1v1h-1z M96,60h1v1h-1z M97,60h1v1h-1z M101,60h1v1h-1z M102,60h1v1h-1zM4,61h1v1h-1z M5,61h1v1h-1z M9,61h1v1h-1z M13,61h1v1h-1z M20,61h1v1h-1z M21,61h1v1h-1z M23,61h1v1h-1z M24,61h1v1h-1z M27,61h1v1h-1z M28,61h1v1h-1z M30,61h1v1h-1z M31,61h1v1h-1z M33,61h1v1h-1z M34,61h1v1h-1z M35,61h1v1h-1z M36,61h1v1h-1z M41,61h1v1h-1z M44,61h1v1h-1z M46,61h1v1h-1z M47,61h1v1h-1z M49,61h1v1h-1z M50,61h1v1h-1z M53,61h1v1h-1z M55,61h1v1h-1z M56,61h1v1h-1z M59,61h1v1h-1z M60,61h1v1h-1z M65,61h1v1h-1z M75,61h1v1h-1z M77,61h1v1h-1z M78,61h1v1h-1z M79,61h1v1h-1z M80,61h1v1h-1z M84,61h1v1h-1z M86,61h1v1h-1z M89,61h1v1h-1z M90,61h1v1h-1z M93,61h1v1h-1z M96,61h1v1h-1z M97,61h1v1h-1z M98,61h1v1h-1z M100,61h1v1h-1z M101,61h1v1h-1z M102,61h1v1h-1z M103,61h1v1h-1z M104,61h1v1h-1zM4,62h1v1h-1z M5,62h1v1h-1z M6,62h1v1h-1z M8,62h1v1h-1z M9,62h1v1h-1z M10,62h1v1h-1z M12,62h1v1h-1z M14,62h1v1h-1z M17,62h1v1h-1z M18,62h1v1h-1z M19,62h1v1h-1z M20,62h1v1h-1z M22,62h1v1h-1z M23,62h1v1h-1z M27,62h1v1h-1z M28,62h1v1h-1z M29,62h1v1h-1z M30,62h1v1h-1z M31,62h1v1h-1z M32,62h1v1h-1z M33,62h1v1h-1z M34,62h1v1h-1z M35,62h1v1h-1z M36,62h1v1h-1z M37,62h1v1h-1z M39,62h1v1h-1z M44,62h1v1h-1z M45,62h1v1h-1z M47,62h1v1h-1z M49,62h1v1h-1z M53,62h1v1h-1z M55,62h1v1h-1z M59,62h1v1h-1z M62,62h1v1h-1z M65,62h1v1h-1z M66,62h1v1h-1z M68,62h1v1h-1z M70,62h1v1h-1z M72,62h1v1h-1z M73,62h1v1h-1z M75,62h1v1h-1z M76,62h1v1h-1z M77,62h1v1h-1z M80,62h1v1h-1z M82,62h1v1h-1z M83,62h1v1h-1z M93,62h1v1h-1z M94,62h1v1h-1z M95,62h1v1h-1z M96,62h1v1h-1z M98,62h1v1h-1z M102,62h1v1h-1z M104,62h1v1h-1zM4,63h1v1h-1z M5,63h1v1h-1z M7,63h1v1h-1z M8,63h1v1h-1z M13,63h1v1h-1z M14,63h1v1h-1z M15,63h1v1h-1z M17,63h1v1h-1z M19,63h1v1h-1z M20,63h1v1h-1z M21,63h1v1h-1z M22,63h1v1h-1z M25,63h1v1h-1z M26,63h1v1h-1z M32,63h1v1h-1z M33,63h1v1h-1z M34,63h1v1h-1z M36,63h1v1h-1z M37,63h1v1h-1z M39,63h1v1h-1z M40,63h1v1h-1z M46,63h1v1h-1z M47,63h1v1h-1z M49,63h1v1h-1z M51,63h1v1h-1z M53,63h1v1h-1z M54,63h1v1h-1z M56,63h1v1h-1z M58,63h1v1h-1z M61,63h1v1h-1z M62,63h1v1h-1z M64,63h1v1h-1z M65,63h1v1h-1z M66,63h1v1h-1z M67,63h1v1h-1z M69,63h1v1h-1z M71,63h1v1h-1z M74,63h1v1h-1z M75,63h1v1h-1z M78,63h1v1h-1z M79,63h1v1h-1z M80,63h1v1h-1z M84,63h1v1h-1z M87,63h1v1h-1z M89,63h1v1h-1z M90,63h1v1h-1z M91,63h1v1h-1z M92,63h1v1h-1z M96,63h1v1h-1z M98,63h1v1h-1z M99,63h1v1h-1z M100,63h1v1h-1z M5,64h1v1h-1z M6,64h1v1h-1z M7,64h1v1h-1z M9,64h1v1h-1z M10,64h1v1h-1z M16,64h1v1h-1z M20,64h1v1h-1z M21,64h1v1h-1z M23,64h1v1h-1z M27,64h1v1h-1z M28,64h1v1h-1z M29,64h1v1h-1z M30,64h1v1h-1z M34,64h1v1h-1z M35,64h1v1h-1z M36,64h1v1h-1z M39,64h1v1h-1z M40,64h1v1h-1z M41,64h1v1h-1z M42,64h1v1h-1z M44,64h1v1h-1z M46,64h1v1h-1z M48,64h1v1h-1z M50,64h1v1h-1z M51,64h1v1h-1z M52,64h1v1h-1z M54,64h1v1h-1z M56,64h1v1h-1z M57,64h1v1h-1z M58,64h1v1h-1z M59,64h1v1h-1z M60,64h1v1h-1z M62,64h1v1h-1z M63,64h1v1h-1z M65,64h1v1h-1z M66,64h1v1h-1z M68,64h1v1h-1z M69,64h1v1h-1z M73,64h1v1h-1z M74,64h1v1h-1z M75,64h1v1h-1z M80,64h1v1h-1z M82,64h1v1h-1z M83,64h1v1h-1z M85,64h1v1h-1z M86,64h1v1h-1z M89,64h1v1h-1z M90,64h1v1h-1z M91,64h1v1h-1z M95,64h1v1h-1z M96,64h1v1h-1z M103,64h1v1h-1zM4,65h1v1h-1z M6,65h1v1h-1z M7,65h1v1h-1z M9,65h1v1h-1z M11,65h1v1h-1z M12,65h1v1h-1z M13,65h1v1h-1z M18,65h1v1h-1z M19,65h1v1h-1z M20,65h1v1h-1z M21,65h1v1h-1z M23,65h1v1h-1z M24,65h1v1h-1z M25,65h1v1h-1z M26,65h1v1h-1z M28,65h1v1h-1z M29,65h1v1h-1z M30,65h1v1h-1z M31,65h1v1h-1z M34,65h1v1h-1z M38,65h1v1h-1z M40,65h1v1h-1z M42,65h1v1h-1z M43,65h1v1h-1z M44,65h1v1h-1z M46,65h1v1h-1z M47,65h1v1h-1z M48,65h1v1h-1z M49,65h1v1h-1z M51,65h1v1h-1z M52,65h1v1h-1z M53,65h1v1h-1z M56,65h1v1h-1z M61,65h1v1h-1z M67,65h1v1h-1z M68,65h1v1h-1z M75,65h1v1h-1z M77,65h1v1h-1z M79,65h1v1h-1z M81,65h1v1h-1z M82,65h1v1h-1z M83,65h1v1h-1z M86,65h1v1h-1z M87,65h1v1h-1z M90,65h1v1h-1z M92,65h1v1h-1z M93,65h1v1h-1z M94,65h1v1h-1z M96,65h1v1h-1z M97,65h1v1h-1z M101,65h1v1h-1zM4,66h1v1h-1z M7,66h1v1h-1z M10,66h1v1h-1z M11,66h1v1h-1z M13,66h1v1h-1z M16,66h1v1h-1z M18,66h1v1h-1z M19,66h1v1h-1z M20,66h1v1h-1z M24,66h1v1h-1z M25,66h1v1h-1z M26,66h1v1h-1z M27,66h1v1h-1z M30,66h1v1h-1z M31,66h1v1h-1z M32,66h1v1h-1z M33,66h1v1h-1z M38,66h1v1h-1z M40,66h1v1h-1z M42,66h1v1h-1z M44,66h1v1h-1z M45,66h1v1h-1z M46,66h1v1h-1z M47,66h1v1h-1z M51,66h1v1h-1z M53,66h1v1h-1z M54,66h1v1h-1z M55,66h1v1h-1z M56,66h1v1h-1z M57,66h1v1h-1z M58,66h1v1h-1z M62,66h1v1h-1z M63,66h1v1h-1z M64,66h1v1h-1z M71,66h1v1h-1z M73,66h1v1h-1z M74,66h1v1h-1z M75,66h1v1h-1z M76,66h1v1h-1z M78,66h1v1h-1z M81,66h1v1h-1z M82,66h1v1h-1z M83,66h1v1h-1z M85,66h1v1h-1z M86,66h1v1h-1z M88,66h1v1h-1z M90,66h1v1h-1z M91,66h1v1h-1z M93,66h1v1h-1z M95,66h1v1h-1z M97,66h1v1h-1z M98,66h1v1h-1z M99,66h1v1h-1z M104,66h1v1h-1zM4,67h1v1h-1z M7,67h1v1h-1z M8,67h1v1h-1z M9,67h1v1h-1z M11,67h1v1h-1z M14,67h1v1h-1z M17,67h1v1h-1z M18,67h1v1h-1z M19,67h1v1h-1z M21,67h1v1h-1z M22,67h1v1h-1z M23,67h1v1h-1z M26,67h1v1h-1z M27,67h1v1h-1z M28,67h1v1h-1z M30,67h1v1h-1z M31,67h1v1h-1z M32,67h1v1h-1z M33,67h1v1h-1z M34,67h1v1h-1z M35,67h1v1h-1z M37,67h1v1h-1z M40,67h1v1h-1z M42,67h1v1h-1z M43,67h1v1h-1z M45,67h1v1h-1z M46,67h1v1h-1z M47,67h1v1h-1z M48,67h1v1h-1z M49,67h1v1h-1z M50,67h1v1h-1z M55,67h1v1h-1z M58,67h1v1h-1z M62,67h1v1h-1z M63,67h1v1h-1z M67,67h1v1h-1z M69,67h1v1h-1z M73,67h1v1h-1z M76,67h1v1h-1z M78,67h1v1h-1z M80,67h1v1h-1z M82,67h1v1h-1z M86,67h1v1h-1z M88,67h1v1h-1z M90,67h1v1h-1z M91,67h1v1h-1z M92,67h1v1h-1z M93,67h1v1h-1z M94,67h1v1h-1z M95,67h1v1h-1z M96,67h1v1h-1z M98,67h1v1h-1z M99,67h1v1h-1z M100,67h1v1h-1z M102,67h1v1h-1zM4,68h1v1h-1z M5,68h1v1h-1z M6,68h1v1h-1z M7,68h1v1h-1z M10,68h1v1h-1z M14,68h1v1h-1z M15,68h1v1h-1z M19,68h1v1h-1z M20,68h1v1h-1z M22,68h1v1h-1z M23,68h1v1h-1z M24,68h1v1h-1z M28,68h1v1h-1z M31,68h1v1h-1z M32,68h1v1h-1z M34,68h1v1h-1z M39,68h1v1h-1z M43,68h1v1h-1z M46,68h1v1h-1z M48,68h1v1h-1z M51,68h1v1h-1z M56,68h1v1h-1z M58,68h1v1h-1z M60,68h1v1h-1z M61,68h1v1h-1z M62,68h1v1h-1z M63,68h1v1h-1z M69,68h1v1h-1z M71,68h1v1h-1z M74,68h1v1h-1z M75,68h1v1h-1z M76,68h1v1h-1z M78,68h1v1h-1z M80,68h1v1h-1z M81,68h1v1h-1z M85,68h1v1h-1z M86,68h1v1h-1z M87,68h1v1h-1z M88,68h1v1h-1z M89,68h1v1h-1z M92,68h1v1h-1z M97,68h1v1h-1z M101,68h1v1h-1z M102,68h1v1h-1z M103,68h1v1h-1z M104,68h1v1h-1z M6,69h1v1h-1z M8,69h1v1h-1z M12,69h1v1h-1z M13,69h1v1h-1z M16,69h1v1h-1z M17,69h1v1h-1z M18,69h1v1h-1z M19,69h1v1h-1z M23,69h1v1h-1z M24,69h1v1h-1z M25,69h1v1h-1z M27,69h1v1h-1z M32,69h1v1h-1z M33,69h1v1h-1z M34,69h1v1h-1z M36,69h1v1h-1z M37,69h1v1h-1z M38,69h1v1h-1z M40,69h1v1h-1z M41,69h1v1h-1z M43,69h1v1h-1z M45,69h1v1h-1z M46,69h1v1h-1z M47,69h1v1h-1z M49,69h1v1h-1z M52,69h1v1h-1z M57,69h1v1h-1z M60,69h1v1h-1z M65,69h1v1h-1z M67,69h1v1h-1z M68,69h1v1h-1z M70,69h1v1h-1z M79,69h1v1h-1z M81,69h1v1h-1z M82,69h1v1h-1z M83,69h1v1h-1z M85,69h1v1h-1z M89,69h1v1h-1z M90,69h1v1h-1z M91,69h1v1h-1z M95,69h1v1h-1z M96,69h1v1h-1z M98,69h1v1h-1z M101,69h1v1h-1z M7,70h1v1h-1z M8,70h1v1h-1z M9,70h1v1h-1z M10,70h1v1h-1z M13,70h1v1h-1z M14,70h1v1h-1z M15,70h1v1h-1z M16,70h1v1h-1z M17,70h1v1h-1z M19,70h1v1h-1z M20,70h1v1h-1z M21,70h1v1h-1z M22,70h1v1h-1z M25,70h1v1h-1z M29,70h1v1h-1z M30,70h1v1h-1z M34,70h1v1h-1z M36,70h1v1h-1z M40,70h1v1h-1z M41,70h1v1h-1z M45,70h1v1h-1z M49,70h1v1h-1z M50,70h1v1h-1z M51,70h1v1h-1z M52,70h1v1h-1z M54,70h1v1h-1z M56,70h1v1h-1z M57,70h1v1h-1z M61,70h1v1h-1z M62,70h1v1h-1z M63,70h1v1h-1z M64,70h1v1h-1z M65,70h1v1h-1z M73,70h1v1h-1z M75,70h1v1h-1z M76,70h1v1h-1z M78,70h1v1h-1z M79,70h1v1h-1z M80,70h1v1h-1z M83,70h1v1h-1z M84,70h1v1h-1z M85,70h1v1h-1z M88,70h1v1h-1z M89,70h1v1h-1z M92,70h1v1h-1z M95,70h1v1h-1z M97,70h1v1h-1z M98,70h1v1h-1z M100,70h1v1h-1z M101,70h1v1h-1z M104,70h1v1h-1z M6,71h1v1h-1z M9,71h1v1h-1z M11,71h1v1h-1z M12,71h1v1h-1z M13,71h1v1h-1z M14,71h1v1h-1z M17,71h1v1h-1z M18,71h1v1h-1z M19,71h1v1h-1z M21,71h1v1h-1z M25,71h1v1h-1z M29,71h1v1h-1z M30,71h1v1h-1z M31,71h1v1h-1z M32,71h1v1h-1z M35,71h1v1h-1z M36,71h1v1h-1z M37,71h1v1h-1z M38,71h1v1h-1z M39,71h1v1h-1z M45,71h1v1h-1z M47,71h1v1h-1z M49,71h1v1h-1z M50,71h1v1h-1z M52,71h1v1h-1z M54,71h1v1h-1z M55,71h1v1h-1z M56,71h1v1h-1z M57,71h1v1h-1z M59,71h1v1h-1z M63,71h1v1h-1z M64,71h1v1h-1z M65,71h1v1h-1z M67,71h1v1h-1z M68,71h1v1h-1z M69,71h1v1h-1z M70,71h1v1h-1z M72,71h1v1h-1z M73,71h1v1h-1z M76,71h1v1h-1z M78,71h1v1h-1z M79,71h1v1h-1z M82,71h1v1h-1z M84,71h1v1h-1z M87,71h1v1h-1z M88,71h1v1h-1z M90,71h1v1h-1z M93,71h1v1h-1z M97,71h1v1h-1z M98,71h1v1h-1z M99,71h1v1h-1z M104,71h1v1h-1z M10,72h1v1h-1z M11,72h1v1h-1z M12,72h1v1h-1z M16,72h1v1h-1z M18,72h1v1h-1z M20,72h1v1h-1z M21,72h1v1h-1z M22,72h1v1h-1z M25,72h1v1h-1z M27,72h1v1h-1z M34,72h1v1h-1z M36,72h1v1h-1z M42,72h1v1h-1z M43,72h1v1h-1z M45,72h1v1h-1z M47,72h1v1h-1z M48,72h1v1h-1z M49,72h1v1h-1z M55,72h1v1h-1z M56,72h1v1h-1z M63,72h1v1h-1z M65,72h1v1h-1z M66,72h1v1h-1z M71,72h1v1h-1z M72,72h1v1h-1z M73,72h1v1h-1z M75,72h1v1h-1z M77,72h1v1h-1z M78,72h1v1h-1z M79,72h1v1h-1z M81,72h1v1h-1z M83,72h1v1h-1z M86,72h1v1h-1z M89,72h1v1h-1z M90,72h1v1h-1z M91,72h1v1h-1z M92,72h1v1h-1z M93,72h1v1h-1z M94,72h1v1h-1z M100,72h1v1h-1z M101,72h1v1h-1z M103,72h1v1h-1z M104,72h1v1h-1z M6,73h1v1h-1z M7,73h1v1h-1z M9,73h1v1h-1z M11,73h1v1h-1z M15,73h1v1h-1z M17,73h1v1h-1z M21,73h1v1h-1z M25,73h1v1h-1z M27,73h1v1h-1z M29,73h1v1h-1z M30,73h1v1h-1z M31,73h1v1h-1z M33,73h1v1h-1z M37,73h1v1h-1z M38,73h1v1h-1z M39,73h1v1h-1z M40,73h1v1h-1z M41,73h1v1h-1z M42,73h1v1h-1z M44,73h1v1h-1z M47,73h1v1h-1z M48,73h1v1h-1z M50,73h1v1h-1z M51,73h1v1h-1z M52,73h1v1h-1z M55,73h1v1h-1z M56,73h1v1h-1z M58,73h1v1h-1z M60,73h1v1h-1z M61,73h1v1h-1z M62,73h1v1h-1z M63,73h1v1h-1z M64,73h1v1h-1z M65,73h1v1h-1z M70,73h1v1h-1z M71,73h1v1h-1z M72,73h1v1h-1z M73,73h1v1h-1z M74,73h1v1h-1z M75,73h1v1h-1z M76,73h1v1h-1z M77,73h1v1h-1z M79,73h1v1h-1z M80,73h1v1h-1z M82,73h1v1h-1z M83,73h1v1h-1z M85,73h1v1h-1z M88,73h1v1h-1z M91,73h1v1h-1z M98,73h1v1h-1z M99,73h1v1h-1z M100,73h1v1h-1z M101,73h1v1h-1z M5,74h1v1h-1z M6,74h1v1h-1z M7,74h1v1h-1z M8,74h1v1h-1z M9,74h1v1h-1z M10,74h1v1h-1z M11,74h1v1h-1z M12,74h1v1h-1z M13,74h1v1h-1z M15,74h1v1h-1z M20,74h1v1h-1z M21,74h1v1h-1z M23,74h1v1h-1z M24,74h1v1h-1z M27,74h1v1h-1z M28,74h1v1h-1z M29,74h1v1h-1z M30,74h1v1h-1z M31,74h1v1h-1z M32,74h1v1h-1z M33,74h1v1h-1z M34,74h1v1h-1z M38,74h1v1h-1z M39,74h1v1h-1z M40,74h1v1h-1z M41,74h1v1h-1z M46,74h1v1h-1z M47,74h1v1h-1z M48,74h1v1h-1z M52,74h1v1h-1z M53,74h1v1h-1z M54,74h1v1h-1z M55,74h1v1h-1z M56,74h1v1h-1z M57,74h1v1h-1z M59,74h1v1h-1z M60,74h1v1h-1z M61,74h1v1h-1z M62,74h1v1h-1z M64,74h1v1h-1z M66,74h1v1h-1z M67,74h1v1h-1z M71,74h1v1h-1z M74,74h1v1h-1z M75,74h1v1h-1z M76,74h1v1h-1z M77,74h1v1h-1z M78,74h1v1h-1z M82,74h1v1h-1z M84,74h1v1h-1z M86,74h1v1h-1z M92,74h1v1h-1z M94,74h1v1h-1z M96,74h1v1h-1z M97,74h1v1h-1z M98,74h1v1h-1z M99,74h1v1h-1z M100,74h1v1h-1z M101,74h1v1h-1z M102,74h1v1h-1z M104,74h1v1h-1z M5,75h1v1h-1z M8,75h1v1h-1z M12,75h1v1h-1z M14,75h1v1h-1z M15,75h1v1h-1z M20,75h1v1h-1z M21,75h1v1h-1z M24,75h1v1h-1z M26,75h1v1h-1z M27,75h1v1h-1z M28,75h1v1h-1z M29,75h1v1h-1z M30,75h1v1h-1z M34,75h1v1h-1z M35,75h1v1h-1z M39,75h1v1h-1z M40,75h1v1h-1z M45,75h1v1h-1z M46,75h1v1h-1z M47,75h1v1h-1z M49,75h1v1h-1z M52,75h1v1h-1z M56,75h1v1h-1z M58,75h1v1h-1z M60,75h1v1h-1z M62,75h1v1h-1z M63,75h1v1h-1z M65,75h1v1h-1z M67,75h1v1h-1z M68,75h1v1h-1z M70,75h1v1h-1z M72,75h1v1h-1z M73,75h1v1h-1z M74,75h1v1h-1z M78,75h1v1h-1z M79,75h1v1h-1z M84,75h1v1h-1z M88,75h1v1h-1z M91,75h1v1h-1z M94,75h1v1h-1z M95,75h1v1h-1z M96,75h1v1h-1z M100,75h1v1h-1z M101,75h1v1h-1z M103,75h1v1h-1z M104,75h1v1h-1zM4,76h1v1h-1z M5,76h1v1h-1z M8,76h1v1h-1z M10,76h1v1h-1z M12,76h1v1h-1z M14,76h1v1h-1z M16,76h1v1h-1z M17,76h1v1h-1z M18,76h1v1h-1z M19,76h1v1h-1z M20,76h1v1h-1z M21,76h1v1h-1z M22,76h1v1h-1z M24,76h1v1h-1z M25,76h1v1h-1z M26,76h1v1h-1z M27,76h1v1h-1z M29,76h1v1h-1z M30,76h1v1h-1z M32,76h1v1h-1z M34,76h1v1h-1z M35,76h1v1h-1z M36,76h1v1h-1z M37,76h1v1h-1z M40,76h1v1h-1z M41,76h1v1h-1z M44,76h1v1h-1z M46,76h1v1h-1z M47,76h1v1h-1z M49,76h1v1h-1z M52,76h1v1h-1z M54,76h1v1h-1z M56,76h1v1h-1z M60,76h1v1h-1z M62,76h1v1h-1z M65,76h1v1h-1z M66,76h1v1h-1z M67,76h1v1h-1z M69,76h1v1h-1z M70,76h1v1h-1z M71,76h1v1h-1z M72,76h1v1h-1z M74,76h1v1h-1z M76,76h1v1h-1z M78,76h1v1h-1z M79,76h1v1h-1z M80,76h1v1h-1z M81,76h1v1h-1z M82,76h1v1h-1z M84,76h1v1h-1z M85,76h1v1h-1z M87,76h1v1h-1z M90,76h1v1h-1z M91,76h1v1h-1z M93,76h1v1h-1z M95,76h1v1h-1z M96,76h1v1h-1z M98,76h1v1h-1z M100,76h1v1h-1z M101,76h1v1h-1zM4,77h1v1h-1z M7,77h1v1h-1z M8,77h1v1h-1z M12,77h1v1h-1z M26,77h1v1h-1z M28,77h1v1h-1z M30,77h1v1h-1z M34,77h1v1h-1z M36,77h1v1h-1z M37,77h1v1h-1z M39,77h1v1h-1z M40,77h1v1h-1z M43,77h1v1h-1z M44,77h1v1h-1z M46,77h1v1h-1z M49,77h1v1h-1z M51,77h1v1h-1z M52,77h1v1h-1z M56,77h1v1h-1z M58,77h1v1h-1z M60,77h1v1h-1z M62,77h1v1h-1z M67,77h1v1h-1z M69,77h1v1h-1z M72,77h1v1h-1z M74,77h1v1h-1z M78,77h1v1h-1z M80,77h1v1h-1z M82,77h1v1h-1z M85,77h1v1h-1z M87,77h1v1h-1z M92,77h1v1h-1z M93,77h1v1h-1z M96,77h1v1h-1z M100,77h1v1h-1z M103,77h1v1h-1z M104,77h1v1h-1z M6,78h1v1h-1z M8,78h1v1h-1z M9,78h1v1h-1z M10,78h1v1h-1z M11,78h1v1h-1z M12,78h1v1h-1z M13,78h1v1h-1z M15,78h1v1h-1z M16,78h1v1h-1z M17,78h1v1h-1z M18,78h1v1h-1z M23,78h1v1h-1z M24,78h1v1h-1z M25,78h1v1h-1z M26,78h1v1h-1z M27,78h1v1h-1z M28,78h1v1h-1z M30,78h1v1h-1z M31,78h1v1h-1z M32,78h1v1h-1z M33,78h1v1h-1z M34,78h1v1h-1z M35,78h1v1h-1z M36,78h1v1h-1z M37,78h1v1h-1z M39,78h1v1h-1z M41,78h1v1h-1z M43,78h1v1h-1z M44,78h1v1h-1z M45,78h1v1h-1z M46,78h1v1h-1z M48,78h1v1h-1z M49,78h1v1h-1z M51,78h1v1h-1z M52,78h1v1h-1z M53,78h1v1h-1z M54,78h1v1h-1z M55,78h1v1h-1z M56,78h1v1h-1z M60,78h1v1h-1z M61,78h1v1h-1z M65,78h1v1h-1z M67,78h1v1h-1z M68,78h1v1h-1z M69,78h1v1h-1z M71,78h1v1h-1z M73,78h1v1h-1z M74,78h1v1h-1z M75,78h1v1h-1z M76,78h1v1h-1z M77,78h1v1h-1z M78,78h1v1h-1z M79,78h1v1h-1z M83,78h1v1h-1z M84,78h1v1h-1z M85,78h1v1h-1z M89,78h1v1h-1z M90,78h1v1h-1z M94,78h1v1h-1z M96,78h1v1h-1z M97,78h1v1h-1z M98,78h1v1h-1z M99,78h1v1h-1z M100,78h1v1h-1z M101,78h1v1h-1z M104,78h1v1h-1z M7,79h1v1h-1z M8,79h1v1h-1z M9,79h1v1h-1z M11,79h1v1h-1z M12,79h1v1h-1z M13,79h1v1h-1z M16,79h1v1h-1z M18,79h1v1h-1z M19,79h1v1h-1z M21,79h1v1h-1z M22,79h1v1h-1z M23,79h1v1h-1z M24,79h1v1h-1z M30,79h1v1h-1z M32,79h1v1h-1z M36,79h1v1h-1z M38,79h1v1h-1z M42,79h1v1h-1z M43,79h1v1h-1z M50,79h1v1h-1z M51,79h1v1h-1z M52,79h1v1h-1z M53,79h1v1h-1z M54,79h1v1h-1z M55,79h1v1h-1z M57,79h1v1h-1z M58,79h1v1h-1z M60,79h1v1h-1z M61,79h1v1h-1z M63,79h1v1h-1z M64,79h1v1h-1z M65,79h1v1h-1z M66,79h1v1h-1z M67,79h1v1h-1z M69,79h1v1h-1z M70,79h1v1h-1z M72,79h1v1h-1z M73,79h1v1h-1z M74,79h1v1h-1z M75,79h1v1h-1z M76,79h1v1h-1z M77,79h1v1h-1z M79,79h1v1h-1z M80,79h1v1h-1z M83,79h1v1h-1z M86,79h1v1h-1z M87,79h1v1h-1z M89,79h1v1h-1z M91,79h1v1h-1z M95,79h1v1h-1z M97,79h1v1h-1z M98,79h1v1h-1z M101,79h1v1h-1z M102,79h1v1h-1z M103,79h1v1h-1z M104,79h1v1h-1zM4,80h1v1h-1z M5,80h1v1h-1z M6,80h1v1h-1z M8,80h1v1h-1z M10,80h1v1h-1z M11,80h1v1h-1z M13,80h1v1h-1z M14,80h1v1h-1z M15,80h1v1h-1z M20,80h1v1h-1z M24,80h1v1h-1z M29,80h1v1h-1z M31,80h1v1h-1z M34,80h1v1h-1z M36,80h1v1h-1z M37,80h1v1h-1z M40,80h1v1h-1z M43,80h1v1h-1z M45,80h1v1h-1z M46,80h1v1h-1z M49,80h1v1h-1z M50,80h1v1h-1z M52,80h1v1h-1z M54,80h1v1h-1z M56,80h1v1h-1z M59,80h1v1h-1z M62,80h1v1h-1z M63,80h1v1h-1z M64,80h1v1h-1z M65,80h1v1h-1z M66,80h1v1h-1z M67,80h1v1h-1z M68,80h1v1h-1z M69,80h1v1h-1z M70,80h1v1h-1z M71,80h1v1h-1z M73,80h1v1h-1z M75,80h1v1h-1z M80,80h1v1h-1z M83,80h1v1h-1z M84,80h1v1h-1z M85,80h1v1h-1z M86,80h1v1h-1z M87,80h1v1h-1z M88,80h1v1h-1z M89,80h1v1h-1z M94,80h1v1h-1z M95,80h1v1h-1zM4,81h1v1h-1z M5,81h1v1h-1z M6,81h1v1h-1z M7,81h1v1h-1z M8,81h1v1h-1z M13,81h1v1h-1z M15,81h1v1h-1z M16,81h1v1h-1z M18,81h1v1h-1z M19,81h1v1h-1z M20,81h1v1h-1z M22,81h1v1h-1z M23,81h1v1h-1z M24,81h1v1h-1z M26,81h1v1h-1z M29,81h1v1h-1z M30,81h1v1h-1z M31,81h1v1h-1z M38,81h1v1h-1z M40,81h1v1h-1z M41,81h1v1h-1z M42,81h1v1h-1z M43,81h1v1h-1z M45,81h1v1h-1z M46,81h1v1h-1z M48,81h1v1h-1z M49,81h1v1h-1z M50,81h1v1h-1z M55,81h1v1h-1z M56,81h1v1h-1z M57,81h1v1h-1z M59,81h1v1h-1z M60,81h1v1h-1z M63,81h1v1h-1z M64,81h1v1h-1z M65,81h1v1h-1z M66,81h1v1h-1z M70,81h1v1h-1z M74,81h1v1h-1z M75,81h1v1h-1z M76,81h1v1h-1z M77,81h1v1h-1z M78,81h1v1h-1z M79,81h1v1h-1z M80,81h1v1h-1z M83,81h1v1h-1z M85,81h1v1h-1z M87,81h1v1h-1z M88,81h1v1h-1z M89,81h1v1h-1z M90,81h1v1h-1z M91,81h1v1h-1z M92,81h1v1h-1z M95,81h1v1h-1z M96,81h1v1h-1z M97,81h1v1h-1z M101,81h1v1h-1z M102,81h1v1h-1zM4,82h1v1h-1z M6,82h1v1h-1z M9,82h1v1h-1z M10,82h1v1h-1z M13,82h1v1h-1z M14,82h1v1h-1z M17,82h1v1h-1z M18,82h1v1h-1z M19,82h1v1h-1z M21,82h1v1h-1z M24,82h1v1h-1z M26,82h1v1h-1z M27,82h1v1h-1z M30,82h1v1h-1z M31,82h1v1h-1z M32,82h1v1h-1z M35,82h1v1h-1z M37,82h1v1h-1z M38,82h1v1h-1z M39,82h1v1h-1z M40,82h1v1h-1z M41,82h1v1h-1z M43,82h1v1h-1z M48,82h1v1h-1z M50,82h1v1h-1z M51,82h1v1h-1z M52,82h1v1h-1z M60,82h1v1h-1z M65,82h1v1h-1z M66,82h1v1h-1z M69,82h1v1h-1z M70,82h1v1h-1z M73,82h1v1h-1z M74,82h1v1h-1z M76,82h1v1h-1z M77,82h1v1h-1z M78,82h1v1h-1z M79,82h1v1h-1z M80,82h1v1h-1z M83,82h1v1h-1z M84,82h1v1h-1z M85,82h1v1h-1z M88,82h1v1h-1z M91,82h1v1h-1z M93,82h1v1h-1z M95,82h1v1h-1z M96,82h1v1h-1z M99,82h1v1h-1z M104,82h1v1h-1z M5,83h1v1h-1z M7,83h1v1h-1z M9,83h1v1h-1z M11,83h1v1h-1z M12,83h1v1h-1z M13,83h1v1h-1z M14,83h1v1h-1z M18,83h1v1h-1z M20,83h1v1h-1z M22,83h1v1h-1z M23,83h1v1h-1z M25,83h1v1h-1z M28,83h1v1h-1z M32,83h1v1h-1z M36,83h1v1h-1z M37,83h1v1h-1z M40,83h1v1h-1z M42,83h1v1h-1z M45,83h1v1h-1z M48,83h1v1h-1z M49,83h1v1h-1z M52,83h1v1h-1z M53,83h1v1h-1z M55,83h1v1h-1z M57,83h1v1h-1z M58,83h1v1h-1z M61,83h1v1h-1z M63,83h1v1h-1z M67,83h1v1h-1z M68,83h1v1h-1z M69,83h1v1h-1z M71,83h1v1h-1z M73,83h1v1h-1z M77,83h1v1h-1z M79,83h1v1h-1z M84,83h1v1h-1z M85,83h1v1h-1z M88,83h1v1h-1z M89,83h1v1h-1z M91,83h1v1h-1z M92,83h1v1h-1z M95,83h1v1h-1z M99,83h1v1h-1z M102,83h1v1h-1zM4,84h1v1h-1z M6,84h1v1h-1z M8,84h1v1h-1z M9,84h1v1h-1z M10,84h1v1h-1z M11,84h1v1h-1z M12,84h1v1h-1z M16,84h1v1h-1z M17,84h1v1h-1z M19,84h1v1h-1z M20,84h1v1h-1z M23,84h1v1h-1z M24,84h1v1h-1z M29,84h1v1h-1z M31,84h1v1h-1z M32,84h1v1h-1z M33,84h1v1h-1z M35,84h1v1h-1z M36,84h1v1h-1z M38,84h1v1h-1z M39,84h1v1h-1z M40,84h1v1h-1z M47,84h1v1h-1z M49,84h1v1h-1z M50,84h1v1h-1z M51,84h1v1h-1z M54,84h1v1h-1z M56,84h1v1h-1z M62,84h1v1h-1z M66,84h1v1h-1z M67,84h1v1h-1z M68,84h1v1h-1z M69,84h1v1h-1z M70,84h1v1h-1z M71,84h1v1h-1z M72,84h1v1h-1z M73,84h1v1h-1z M74,84h1v1h-1z M76,84h1v1h-1z M77,84h1v1h-1z M78,84h1v1h-1z M79,84h1v1h-1z M82,84h1v1h-1z M83,84h1v1h-1z M85,84h1v1h-1z M86,84h1v1h-1z M87,84h1v1h-1z M90,84h1v1h-1z M91,84h1v1h-1z M96,84h1v1h-1z M97,84h1v1h-1z M99,84h1v1h-1z M101,84h1v1h-1z M104,84h1v1h-1zM4,85h1v1h-1z M5,85h1v1h-1z M6,85h1v1h-1z M8,85h1v1h-1z M9,85h1v1h-1z M12,85h1v1h-1z M13,85h1v1h-1z M14,85h1v1h-1z M18,85h1v1h-1z M20,85h1v1h-1z M21,85h1v1h-1z M22,85h1v1h-1z M23,85h1v1h-1z M25,85h1v1h-1z M27,85h1v1h-1z M28,85h1v1h-1z M31,85h1v1h-1z M32,85h1v1h-1z M34,85h1v1h-1z M36,85h1v1h-1z M38,85h1v1h-1z M39,85h1v1h-1z M40,85h1v1h-1z M41,85h1v1h-1z M42,85h1v1h-1z M44,85h1v1h-1z M47,85h1v1h-1z M48,85h1v1h-1z M49,85h1v1h-1z M51,85h1v1h-1z M52,85h1v1h-1z M55,85h1v1h-1z M56,85h1v1h-1z M59,85h1v1h-1z M60,85h1v1h-1z M62,85h1v1h-1z M67,85h1v1h-1z M69,85h1v1h-1z M70,85h1v1h-1z M71,85h1v1h-1z M72,85h1v1h-1z M75,85h1v1h-1z M76,85h1v1h-1z M77,85h1v1h-1z M79,85h1v1h-1z M80,85h1v1h-1z M81,85h1v1h-1z M82,85h1v1h-1z M83,85h1v1h-1z M86,85h1v1h-1z M87,85h1v1h-1z M92,85h1v1h-1z M94,85h1v1h-1z M98,85h1v1h-1z M101,85h1v1h-1z M103,85h1v1h-1z M104,85h1v1h-1z M6,86h1v1h-1z M7,86h1v1h-1z M8,86h1v1h-1z M10,86h1v1h-1z M11,86h1v1h-1z M15,86h1v1h-1z M18,86h1v1h-1z M21,86h1v1h-1z M22,86h1v1h-1z M24,86h1v1h-1z M26,86h1v1h-1z M32,86h1v1h-1z M35,86h1v1h-1z M36,86h1v1h-1z M38,86h1v1h-1z M40,86h1v1h-1z M41,86h1v1h-1z M42,86h1v1h-1z M47,86h1v1h-1z M48,86h1v1h-1z M50,86h1v1h-1z M52,86h1v1h-1z M57,86h1v1h-1z M59,86h1v1h-1z M60,86h1v1h-1z M61,86h1v1h-1z M62,86h1v1h-1z M64,86h1v1h-1z M66,86h1v1h-1z M69,86h1v1h-1z M72,86h1v1h-1z M74,86h1v1h-1z M78,86h1v1h-1z M79,86h1v1h-1z M80,86h1v1h-1z M81,86h1v1h-1z M85,86h1v1h-1z M86,86h1v1h-1z M88,86h1v1h-1z M89,86h1v1h-1z M90,86h1v1h-1z M91,86h1v1h-1z M92,86h1v1h-1z M93,86h1v1h-1z M95,86h1v1h-1z M97,86h1v1h-1z M98,86h1v1h-1z M99,86h1v1h-1z M103,86h1v1h-1zM4,87h1v1h-1z M7,87h1v1h-1z M12,87h1v1h-1z M15,87h1v1h-1z M16,87h1v1h-1z M17,87h1v1h-1z M18,87h1v1h-1z M20,87h1v1h-1z M21,87h1v1h-1z M22,87h1v1h-1z M25,87h1v1h-1z M28,87h1v1h-1z M29,87h1v1h-1z M32,87h1v1h-1z M33,87h1v1h-1z M34,87h1v1h-1z M38,87h1v1h-1z M41,87h1v1h-1z M43,87h1v1h-1z M49,87h1v1h-1z M51,87h1v1h-1z M52,87h1v1h-1z M53,87h1v1h-1z M56,87h1v1h-1z M57,87h1v1h-1z M58,87h1v1h-1z M59,87h1v1h-1z M60,87h1v1h-1z M65,87h1v1h-1z M66,87h1v1h-1z M68,87h1v1h-1z M69,87h1v1h-1z M70,87h1v1h-1z M72,87h1v1h-1z M73,87h1v1h-1z M79,87h1v1h-1z M80,87h1v1h-1z M81,87h1v1h-1z M83,87h1v1h-1z M86,87h1v1h-1z M87,87h1v1h-1z M88,87h1v1h-1z M89,87h1v1h-1z M90,87h1v1h-1z M91,87h1v1h-1z M92,87h1v1h-1z M94,87h1v1h-1z M99,87h1v1h-1z M100,87h1v1h-1z M101,87h1v1h-1z M104,87h1v1h-1z M5,88h1v1h-1z M7,88h1v1h-1z M8,88h1v1h-1z M10,88h1v1h-1z M12,88h1v1h-1z M13,88h1v1h-1z M16,88h1v1h-1z M17,88h1v1h-1z M19,88h1v1h-1z M20,88h1v1h-1z M21,88h1v1h-1z M26,88h1v1h-1z M27,88h1v1h-1z M29,88h1v1h-1z M30,88h1v1h-1z M31,88h1v1h-1z M32,88h1v1h-1z M34,88h1v1h-1z M40,88h1v1h-1z M41,88h1v1h-1z M43,88h1v1h-1z M44,88h1v1h-1z M45,88h1v1h-1z M46,88h1v1h-1z M48,88h1v1h-1z M49,88h1v1h-1z M50,88h1v1h-1z M52,88h1v1h-1z M53,88h1v1h-1z M54,88h1v1h-1z M59,88h1v1h-1z M60,88h1v1h-1z M61,88h1v1h-1z M62,88h1v1h-1z M63,88h1v1h-1z M66,88h1v1h-1z M67,88h1v1h-1z M69,88h1v1h-1z M70,88h1v1h-1z M71,88h1v1h-1z M72,88h1v1h-1z M74,88h1v1h-1z M78,88h1v1h-1z M79,88h1v1h-1z M80,88h1v1h-1z M81,88h1v1h-1z M83,88h1v1h-1z M84,88h1v1h-1z M85,88h1v1h-1z M88,88h1v1h-1z M89,88h1v1h-1z M90,88h1v1h-1z M92,88h1v1h-1z M94,88h1v1h-1z M96,88h1v1h-1z M97,88h1v1h-1z M98,88h1v1h-1z M99,88h1v1h-1z M103,88h1v1h-1z M6,89h1v1h-1z M8,89h1v1h-1z M15,89h1v1h-1z M17,89h1v1h-1z M19,89h1v1h-1z M20,89h1v1h-1z M23,89h1v1h-1z M24,89h1v1h-1z M25,89h1v1h-1z M29,89h1v1h-1z M30,89h1v1h-1z M31,89h1v1h-1z M37,89h1v1h-1z M38,89h1v1h-1z M45,89h1v1h-1z M52,89h1v1h-1z M54,89h1v1h-1z M56,89h1v1h-1z M59,89h1v1h-1z M61,89h1v1h-1z M69,89h1v1h-1z M70,89h1v1h-1z M72,89h1v1h-1z M73,89h1v1h-1z M75,89h1v1h-1z M77,89h1v1h-1z M78,89h1v1h-1z M79,89h1v1h-1z M81,89h1v1h-1z M82,89h1v1h-1z M83,89h1v1h-1z M84,89h1v1h-1z M89,89h1v1h-1z M90,89h1v1h-1z M91,89h1v1h-1z M94,89h1v1h-1z M95,89h1v1h-1z M96,89h1v1h-1z M97,89h1v1h-1z M100,89h1v1h-1z M104,89h1v1h-1zM4,90h1v1h-1z M8,90h1v1h-1z M9,90h1v1h-1z M10,90h1v1h-1z M13,90h1v1h-1z M18,90h1v1h-1z M19,90h1v1h-1z M20,90h1v1h-1z M25,90h1v1h-1z M30,90h1v1h-1z M32,90h1v1h-1z M35,90h1v1h-1z M36,90h1v1h-1z M40,90h1v1h-1z M41,90h1v1h-1z M42,90h1v1h-1z M45,90h1v1h-1z M46,90h1v1h-1z M47,90h1v1h-1z M49,90h1v1h-1z M50,90h1v1h-1z M51,90h1v1h-1z M52,90h1v1h-1z M54,90h1v1h-1z M55,90h1v1h-1z M56,90h1v1h-1z M58,90h1v1h-1z M60,90h1v1h-1z M62,90h1v1h-1z M72,90h1v1h-1z M73,90h1v1h-1z M74,90h1v1h-1z M76,90h1v1h-1z M77,90h1v1h-1z M79,90h1v1h-1z M81,90h1v1h-1z M82,90h1v1h-1z M83,90h1v1h-1z M85,90h1v1h-1z M87,90h1v1h-1z M89,90h1v1h-1z M91,90h1v1h-1z M92,90h1v1h-1z M94,90h1v1h-1z M96,90h1v1h-1z M97,90h1v1h-1z M98,90h1v1h-1z M99,90h1v1h-1z M101,90h1v1h-1z M102,90h1v1h-1z M103,90h1v1h-1z M104,90h1v1h-1z M5,91h1v1h-1z M7,91h1v1h-1z M11,91h1v1h-1z M14,91h1v1h-1z M16,91h1v1h-1z M17,91h1v1h-1z M21,91h1v1h-1z M22,91h1v1h-1z M23,91h1v1h-1z M24,91h1v1h-1z M28,91h1v1h-1z M31,91h1v1h-1z M34,91h1v1h-1z M36,91h1v1h-1z M37,91h1v1h-1z M39,91h1v1h-1z M43,91h1v1h-1z M45,91h1v1h-1z M46,91h1v1h-1z M48,91h1v1h-1z M50,91h1v1h-1z M52,91h1v1h-1z M53,91h1v1h-1z M54,91h1v1h-1z M56,91h1v1h-1z M58,91h1v1h-1z M60,91h1v1h-1z M62,91h1v1h-1z M63,91h1v1h-1z M64,91h1v1h-1z M65,91h1v1h-1z M66,91h1v1h-1z M67,91h1v1h-1z M68,91h1v1h-1z M72,91h1v1h-1z M73,91h1v1h-1z M74,91h1v1h-1z M77,91h1v1h-1z M78,91h1v1h-1z M81,91h1v1h-1z M83,91h1v1h-1z M85,91h1v1h-1z M87,91h1v1h-1z M88,91h1v1h-1z M89,91h1v1h-1z M90,91h1v1h-1z M91,91h1v1h-1z M93,91h1v1h-1z M94,91h1v1h-1z M97,91h1v1h-1z M98,91h1v1h-1z M99,91h1v1h-1z M100,91h1v1h-1z M102,91h1v1h-1z M103,91h1v1h-1z M6,92h1v1h-1z M7,92h1v1h-1z M8,92h1v1h-1z M10,92h1v1h-1z M11,92h1v1h-1z M13,92h1v1h-1z M15,92h1v1h-1z M16,92h1v1h-1z M17,92h1v1h-1z M19,92h1v1h-1z M21,92h1v1h-1z M22,92h1v1h-1z M24,92h1v1h-1z M25,92h1v1h-1z M26,92h1v1h-1z M28,92h1v1h-1z M30,92h1v1h-1z M32,92h1v1h-1z M33,92h1v1h-1z M36,92h1v1h-1z M39,92h1v1h-1z M40,92h1v1h-1z M41,92h1v1h-1z M42,92h1v1h-1z M44,92h1v1h-1z M49,92h1v1h-1z M51,92h1v1h-1z M54,92h1v1h-1z M55,92h1v1h-1z M56,92h1v1h-1z M57,92h1v1h-1z M60,92h1v1h-1z M61,92h1v1h-1z M62,92h1v1h-1z M64,92h1v1h-1z M65,92h1v1h-1z M69,92h1v1h-1z M70,92h1v1h-1z M73,92h1v1h-1z M76,92h1v1h-1z M85,92h1v1h-1z M87,92h1v1h-1z M88,92h1v1h-1z M89,92h1v1h-1z M90,92h1v1h-1z M92,92h1v1h-1z M93,92h1v1h-1z M95,92h1v1h-1z M96,92h1v1h-1z M99,92h1v1h-1z M100,92h1v1h-1z M102,92h1v1h-1z M104,92h1v1h-1z M5,93h1v1h-1z M6,93h1v1h-1z M13,93h1v1h-1z M14,93h1v1h-1z M16,93h1v1h-1z M17,93h1v1h-1z M18,93h1v1h-1z M20,93h1v1h-1z M21,93h1v1h-1z M22,93h1v1h-1z M26,93h1v1h-1z M29,93h1v1h-1z M30,93h1v1h-1z M31,93h1v1h-1z M34,93h1v1h-1z M35,93h1v1h-1z M37,93h1v1h-1z M39,93h1v1h-1z M42,93h1v1h-1z M44,93h1v1h-1z M45,93h1v1h-1z M47,93h1v1h-1z M48,93h1v1h-1z M50,93h1v1h-1z M53,93h1v1h-1z M54,93h1v1h-1z M56,93h1v1h-1z M59,93h1v1h-1z M60,93h1v1h-1z M64,93h1v1h-1z M65,93h1v1h-1z M66,93h1v1h-1z M67,93h1v1h-1z M69,93h1v1h-1z M71,93h1v1h-1z M72,93h1v1h-1z M74,93h1v1h-1z M76,93h1v1h-1z M78,93h1v1h-1z M79,93h1v1h-1z M80,93h1v1h-1z M81,93h1v1h-1z M82,93h1v1h-1z M83,93h1v1h-1z M85,93h1v1h-1z M86,93h1v1h-1z M90,93h1v1h-1z M91,93h1v1h-1z M92,93h1v1h-1z M96,93h1v1h-1z M99,93h1v1h-1z M100,93h1v1h-1z M102,93h1v1h-1z M103,93h1v1h-1z M104,93h1v1h-1zM4,94h1v1h-1z M7,94h1v1h-1z M8,94h1v1h-1z M10,94h1v1h-1z M12,94h1v1h-1z M14,94h1v1h-1z M15,94h1v1h-1z M17,94h1v1h-1z M19,94h1v1h-1z M21,94h1v1h-1z M22,94h1v1h-1z M24,94h1v1h-1z M27,94h1v1h-1z M28,94h1v1h-1z M29,94h1v1h-1z M31,94h1v1h-1z M32,94h1v1h-1z M34,94h1v1h-1z M37,94h1v1h-1z M38,94h1v1h-1z M39,94h1v1h-1z M41,94h1v1h-1z M43,94h1v1h-1z M47,94h1v1h-1z M48,94h1v1h-1z M49,94h1v1h-1z M52,94h1v1h-1z M53,94h1v1h-1z M55,94h1v1h-1z M56,94h1v1h-1z M58,94h1v1h-1z M60,94h1v1h-1z M62,94h1v1h-1z M64,94h1v1h-1z M65,94h1v1h-1z M66,94h1v1h-1z M68,94h1v1h-1z M70,94h1v1h-1z M71,94h1v1h-1z M73,94h1v1h-1z M74,94h1v1h-1z M75,94h1v1h-1z M76,94h1v1h-1z M77,94h1v1h-1z M78,94h1v1h-1z M80,94h1v1h-1z M81,94h1v1h-1z M82,94h1v1h-1z M86,94h1v1h-1z M88,94h1v1h-1z M91,94h1v1h-1z M92,94h1v1h-1z M93,94h1v1h-1z M95,94h1v1h-1z M97,94h1v1h-1z M98,94h1v1h-1zM4,95h1v1h-1z M6,95h1v1h-1z M7,95h1v1h-1z M9,95h1v1h-1z M12,95h1v1h-1z M16,95h1v1h-1z M19,95h1v1h-1z M21,95h1v1h-1z M25,95h1v1h-1z M30,95h1v1h-1z M31,95h1v1h-1z M33,95h1v1h-1z M37,95h1v1h-1z M39,95h1v1h-1z M40,95h1v1h-1z M42,95h1v1h-1z M44,95h1v1h-1z M46,95h1v1h-1z M51,95h1v1h-1z M52,95h1v1h-1z M54,95h1v1h-1z M55,95h1v1h-1z M57,95h1v1h-1z M58,95h1v1h-1z M59,95h1v1h-1z M62,95h1v1h-1z M63,95h1v1h-1z M64,95h1v1h-1z M66,95h1v1h-1z M69,95h1v1h-1z M71,95h1v1h-1z M72,95h1v1h-1z M73,95h1v1h-1z M76,95h1v1h-1z M77,95h1v1h-1z M78,95h1v1h-1z M80,95h1v1h-1z M81,95h1v1h-1z M83,95h1v1h-1z M85,95h1v1h-1z M86,95h1v1h-1z M87,95h1v1h-1z M88,95h1v1h-1z M90,95h1v1h-1z M93,95h1v1h-1z M98,95h1v1h-1z M99,95h1v1h-1z M102,95h1v1h-1z M8,96h1v1h-1z M10,96h1v1h-1z M11,96h1v1h-1z M12,96h1v1h-1z M17,96h1v1h-1z M19,96h1v1h-1z M21,96h1v1h-1z M22,96h1v1h-1z M23,96h1v1h-1z M24,96h1v1h-1z M30,96h1v1h-1z M31,96h1v1h-1z M32,96h1v1h-1z M33,96h1v1h-1z M34,96h1v1h-1z M35,96h1v1h-1z M37,96h1v1h-1z M38,96h1v1h-1z M39,96h1v1h-1z M40,96h1v1h-1z M41,96h1v1h-1z M43,96h1v1h-1z M45,96h1v1h-1z M46,96h1v1h-1z M47,96h1v1h-1z M50,96h1v1h-1z M52,96h1v1h-1z M53,96h1v1h-1z M54,96h1v1h-1z M55,96h1v1h-1z M56,96h1v1h-1z M60,96h1v1h-1z M63,96h1v1h-1z M64,96h1v1h-1z M66,96h1v1h-1z M70,96h1v1h-1z M71,96h1v1h-1z M74,96h1v1h-1z M75,96h1v1h-1z M76,96h1v1h-1z M77,96h1v1h-1z M78,96h1v1h-1z M79,96h1v1h-1z M81,96h1v1h-1z M82,96h1v1h-1z M83,96h1v1h-1z M84,96h1v1h-1z M85,96h1v1h-1z M86,96h1v1h-1z M90,96h1v1h-1z M92,96h1v1h-1z M95,96h1v1h-1z M96,96h1v1h-1z M97,96h1v1h-1z M98,96h1v1h-1z M99,96h1v1h-1z M100,96h1v1h-1z M101,96h1v1h-1z M102,96h1v1h-1z M104,96h1v1h-1z M12,97h1v1h-1z M14,97h1v1h-1z M15,97h1v1h-1z M16,97h1v1h-1z M19,97h1v1h-1z M20,97h1v1h-1z M21,97h1v1h-1z M22,97h1v1h-1z M25,97h1v1h-1z M26,97h1v1h-1z M28,97h1v1h-1z M30,97h1v1h-1z M34,97h1v1h-1z M38,97h1v1h-1z M40,97h1v1h-1z M42,97h1v1h-1z M43,97h1v1h-1z M44,97h1v1h-1z M45,97h1v1h-1z M46,97h1v1h-1z M48,97h1v1h-1z M49,97h1v1h-1z M50,97h1v1h-1z M52,97h1v1h-1z M56,97h1v1h-1z M58,97h1v1h-1z M59,97h1v1h-1z M61,97h1v1h-1z M62,97h1v1h-1z M63,97h1v1h-1z M64,97h1v1h-1z M67,97h1v1h-1z M68,97h1v1h-1z M70,97h1v1h-1z M71,97h1v1h-1z M73,97h1v1h-1z M74,97h1v1h-1z M78,97h1v1h-1z M79,97h1v1h-1z M83,97h1v1h-1z M84,97h1v1h-1z M86,97h1v1h-1z M95,97h1v1h-1z M96,97h1v1h-1z M100,97h1v1h-1z M101,97h1v1h-1z M103,97h1v1h-1z M104,97h1v1h-1zM4,98h1v1h-1z M5,98h1v1h-1z M6,98h1v1h-1z M7,98h1v1h-1z M8,98h1v1h-1z M9,98h1v1h-1z M10,98h1v1h-1z M13,98h1v1h-1z M15,98h1v1h-1z M18,98h1v1h-1z M22,98h1v1h-1z M23,98h1v1h-1z M24,98h1v1h-1z M26,98h1v1h-1z M27,98h1v1h-1z M28,98h1v1h-1z M29,98h1v1h-1z M30,98h1v1h-1z M32,98h1v1h-1z M34,98h1v1h-1z M36,98h1v1h-1z M38,98h1v1h-1z M40,98h1v1h-1z M41,98h1v1h-1z M42,98h1v1h-1z M43,98h1v1h-1z M44,98h1v1h-1z M47,98h1v1h-1z M48,98h1v1h-1z M52,98h1v1h-1z M54,98h1v1h-1z M56,98h1v1h-1z M59,98h1v1h-1z M61,98h1v1h-1z M62,98h1v1h-1z M63,98h1v1h-1z M65,98h1v1h-1z M66,98h1v1h-1z M73,98h1v1h-1z M74,98h1v1h-1z M76,98h1v1h-1z M78,98h1v1h-1z M82,98h1v1h-1z M83,98h1v1h-1z M85,98h1v1h-1z M86,98h1v1h-1z M87,98h1v1h-1z M89,98h1v1h-1z M93,98h1v1h-1z M95,98h1v1h-1z M96,98h1v1h-1z M98,98h1v1h-1z M100,98h1v1h-1z M102,98h1v1h-1zM4,99h1v1h-1z M10,99h1v1h-1z M12,99h1v1h-1z M14,99h1v1h-1z M15,99h1v1h-1z M16,99h1v1h-1z M17,99h1v1h-1z M20,99h1v1h-1z M22,99h1v1h-1z M23,99h1v1h-1z M24,99h1v1h-1z M25,99h1v1h-1z M27,99h1v1h-1z M28,99h1v1h-1z M29,99h1v1h-1z M30,99h1v1h-1z M34,99h1v1h-1z M35,99h1v1h-1z M39,99h1v1h-1z M43,99h1v1h-1z M44,99h1v1h-1z M46,99h1v1h-1z M47,99h1v1h-1z M48,99h1v1h-1z M50,99h1v1h-1z M51,99h1v1h-1z M52,99h1v1h-1z M56,99h1v1h-1z M58,99h1v1h-1z M59,99h1v1h-1z M60,99h1v1h-1z M62,99h1v1h-1z M64,99h1v1h-1z M66,99h1v1h-1z M67,99h1v1h-1z M70,99h1v1h-1z M72,99h1v1h-1z M74,99h1v1h-1z M78,99h1v1h-1z M83,99h1v1h-1z M84,99h1v1h-1z M85,99h1v1h-1z M86,99h1v1h-1z M88,99h1v1h-1z M90,99h1v1h-1z M91,99h1v1h-1z M93,99h1v1h-1z M95,99h1v1h-1z M96,99h1v1h-1z M100,99h1v1h-1z M103,99h1v1h-1zM4,100h1v1h-1z M6,100h1v1h-1z M7,100h1v1h-1z M8,100h1v1h-1z M10,100h1v1h-1z M14,100h1v1h-1z M15,100h1v1h-1z M17,100h1v1h-1z M19,100h1v1h-1z M23,100h1v1h-1z M28,100h1v1h-1z M30,100h1v1h-1z M31,100h1v1h-1z M32,100h1v1h-1z M33,100h1v1h-1z M34,100h1v1h-1z M35,100h1v1h-1z M37,100h1v1h-1z M38,100h1v1h-1z M39,100h1v1h-1z M40,100h1v1h-1z M42,100h1v1h-1z M44,100h1v1h-1z M45,100h1v1h-1z M47,100h1v1h-1z M49,100h1v1h-1z M51,100h1v1h-1z M52,100h1v1h-1z M53,100h1v1h-1z M54,100h1v1h-1z M55,100h1v1h-1z M56,100h1v1h-1z M57,100h1v1h-1z M58,100h1v1h-1z M59,100h1v1h-1z M60,100h1v1h-1z M61,100h1v1h-1z M64,100h1v1h-1z M67,100h1v1h-1z M68,100h1v1h-1z M73,100h1v1h-1z M74,100h1v1h-1z M75,100h1v1h-1z M76,100h1v1h-1z M77,100h1v1h-1z M78,100h1v1h-1z M79,100h1v1h-1z M80,100h1v1h-1z M83,100h1v1h-1z M85,100h1v1h-1z M87,100h1v1h-1z M89,100h1v1h-1z M91,100h1v1h-1z M92,100h1v1h-1z M94,100h1v1h-1z M96,100h1v1h-1z M97,100h1v1h-1z M98,100h1v1h-1z M99,100h1v1h-1z M100,100h1v1h-1z M103,100h1v1h-1zM4,101h1v1h-1z M6,101h1v1h-1z M7,101h1v1h-1z M8,101h1v1h-1z M10,101h1v1h-1z M12,101h1v1h-1z M13,101h1v1h-1z M15,101h1v1h-1z M18,101h1v1h-1z M19,101h1v1h-1z M20,101h1v1h-1z M22,101h1v1h-1z M24,101h1v1h-1z M26,101h1v1h-1z M31,101h1v1h-1z M32,101h1v1h-1z M35,101h1v1h-1z M36,101h1v1h-1z M37,101h1v1h-1z M38,101h1v1h-1z M42,101h1v1h-1z M46,101h1v1h-1z M49,101h1v1h-1z M50,101h1v1h-1z M51,101h1v1h-1z M53,101h1v1h-1z M55,101h1v1h-1z M61,101h1v1h-1z M63,101h1v1h-1z M65,101h1v1h-1z M67,101h1v1h-1z M68,101h1v1h-1z M70,101h1v1h-1z M72,101h1v1h-1z M73,101h1v1h-1z M74,101h1v1h-1z M75,101h1v1h-1z M76,101h1v1h-1z M77,101h1v1h-1z M83,101h1v1h-1z M84,101h1v1h-1z M85,101h1v1h-1z M91,101h1v1h-1z M92,101h1v1h-1z M94,101h1v1h-1z M96,101h1v1h-1z M97,101h1v1h-1z M100,101h1v1h-1z M101,101h1v1h-1z M102,101h1v1h-1z M103,101h1v1h-1zM4,102h1v1h-1z M6,102h1v1h-1z M7,102h1v1h-1z M8,102h1v1h-1z M10,102h1v1h-1z M12,102h1v1h-1z M13,102h1v1h-1z M14,102h1v1h-1z M18,102h1v1h-1z M19,102h1v1h-1z M20,102h1v1h-1z M21,102h1v1h-1z M23,102h1v1h-1z M25,102h1v1h-1z M28,102h1v1h-1z M29,102h1v1h-1z M30,102h1v1h-1z M32,102h1v1h-1z M35,102h1v1h-1z M36,102h1v1h-1z M37,102h1v1h-1z M45,102h1v1h-1z M46,102h1v1h-1z M49,102h1v1h-1z M50,102h1v1h-1z M53,102h1v1h-1z M54,102h1v1h-1z M56,102h1v1h-1z M59,102h1v1h-1z M62,102h1v1h-1z M64,102h1v1h-1z M65,102h1v1h-1z M66,102h1v1h-1z M67,102h1v1h-1z M70,102h1v1h-1z M73,102h1v1h-1z M77,102h1v1h-1z M78,102h1v1h-1z M80,102h1v1h-1z M83,102h1v1h-1z M85,102h1v1h-1z M86,102h1v1h-1z M92,102h1v1h-1z M93,102h1v1h-1z M95,102h1v1h-1z M100,102h1v1h-1z M102,102h1v1h-1z M103,102h1v1h-1z M104,102h1v1h-1zM4,103h1v1h-1z M10,103h1v1h-1z M12,103h1v1h-1z M13,103h1v1h-1z M15,103h1v1h-1z M16,103h1v1h-1z M17,103h1v1h-1z M18,103h1v1h-1z M20,103h1v1h-1z M21,103h1v1h-1z M22,103h1v1h-1z M24,103h1v1h-1z M30,103h1v1h-1z M32,103h1v1h-1z M34,103h1v1h-1z M35,103h1v1h-1z M36,103h1v1h-1z M37,103h1v1h-1z M38,103h1v1h-1z M40,103h1v1h-1z M41,103h1v1h-1z M44,103h1v1h-1z M45,103h1v1h-1z M47,103h1v1h-1z M48,103h1v1h-1z M50,103h1v1h-1z M51,103h1v1h-1z M52,103h1v1h-1z M55,103h1v1h-1z M59,103h1v1h-1z M63,103h1v1h-1z M67,103h1v1h-1z M68,103h1v1h-1z M71,103h1v1h-1z M72,103h1v1h-1z M73,103h1v1h-1z M74,103h1v1h-1z M75,103h1v1h-1z M78,103h1v1h-1z M81,103h1v1h-1z M82,103h1v1h-1z M83,103h1v1h-1z M87,103h1v1h-1z M89,103h1v1h-1z M90,103h1v1h-1z M92,103h1v1h-1z M94,103h1v1h-1z M95,103h1v1h-1z M96,103h1v1h-1z M100,103h1v1h-1z M102,103h1v1h-1z M103,103h1v1h-1z M104,103h1v1h-1zM4,104h1v1h-1z M5,104h1v1h-1z M6,104h1v1h-1z M7,104h1v1h-1z M8,104h1v1h-1z M9,104h1v1h-1z M10,104h1v1h-1z M13,104h1v1h-1z M14,104h1v1h-1z M15,104h1v1h-1z M17,104h1v1h-1z M18,104h1v1h-1z M19,104h1v1h-1z M22,104h1v1h-1z M24,104h1v1h-1z M25,104h1v1h-1z M27,104h1v1h-1z M28,104h1v1h-1z M29,104h1v1h-1z M31,104h1v1h-1z M32,104h1v1h-1z M33,104h1v1h-1z M34,104h1v1h-1z M35,104h1v1h-1z M41,104h1v1h-1z M42,104h1v1h-1z M47,104h1v1h-1z M48,104h1v1h-1z M49,104h1v1h-1z M51,104h1v1h-1z M56,104h1v1h-1z M57,104h1v1h-1z M59,104h1v1h-1z M60,104h1v1h-1z M61,104h1v1h-1z M62,104h1v1h-1z M63,104h1v1h-1z M65,104h1v1h-1z M69,104h1v1h-1z M71,104h1v1h-1z M72,104h1v1h-1z M74,104h1v1h-1z M75,104h1v1h-1z M76,104h1v1h-1z M77,104h1v1h-1z M79,104h1v1h-1z M81,104h1v1h-1z M84,104h1v1h-1z M87,104h1v1h-1z M90,104h1v1h-1z M92,104h1v1h-1z M94,104h1v1h-1z M95,104h1v1h-1z M96,104h1v1h-1z M98,104h1v1h-1z M101,104h1v1h-1z M102,104h1v1h-1z" fill="#000000"/>
</svg>
